<svg xmlns="http://www.w3.org/2000/svg" width="90" height="51.828" viewBox="0 0 90 51.828">
    <defs>
        <style>
            .cls-1{fill:#fff}
        </style>
    </defs>
    <g id="NJ-Biz" transform="translate(0 -.172)">
        <path id="XMLID_24_" d="M14.436 0v18.9h-.117L8.564 0H0v38h8.564V16.765h.164L14.436 38H23V0z" class="cls-1" transform="translate(0 14)"/>
        <path id="XMLID_23_" d="M.021 31.175a11.037 11.037 0 0 0 1.416.113c1.8 0 2.317-1.111 2.317-3.038V0H13v31.289C13 33.624 12.142 38 5.9 38H0v-6.825z" class="cls-1" transform="translate(23 14)"/>
        <path id="Shape" d="M13.472 38H0V0h14.095c2.851 0 4.794.469 6.114 1.475 1.459 1.112 2.168 2.93 2.168 5.557v4.2c0 2.08-.566 3.526-1.73 4.421a8.269 8.269 0 0 1-4.775 1.274l-.115.113a7.781 7.781 0 0 1 5.266 1.99A7.171 7.171 0 0 1 23 24.32v5.332c0 2.987-.789 5.1-2.411 6.446C19.051 37.377 16.723 38 13.472 38zM9.643 20.531v11.094h.969a2.168 2.168 0 0 0 2.445-2.4v-6.289a2.168 2.168 0 0 0-2.445-2.4zm0-14.45v8.711h1.084a2.209 2.209 0 0 0 2.33-2.336V8.417a2.209 2.209 0 0 0-2.33-2.336z" class="cls-1" transform="translate(38 14)"/>
        <path id="XMLID_19_" d="M0 0h10v38H0z" class="cls-1" transform="translate(61 14)"/>
        <path id="XMLID_18_" d="M17.527 0v6.761l-7.422 23.911H18V38H0v-5.967L8.053 7.35H.9V0z" class="cls-1" transform="translate(72 14)"/>
        <path id="XMLID_3_" d="M3.039 8.376h-.612c-.136 0-.2-.064-.2-.172V.945c0-.086-.045-.107-.136-.107H.2C.068.838 0 .773 0 .666V.193Q0 0 .2 0h5.039q.2 0 .2.193v.473c0 .129-.068.172-.2.172H3.357c-.091 0-.136.043-.136.107V8.2c.022.112-.046.176-.182.176z" class="cls-1" transform="translate(45.136 .193)"/>
        <path id="XMLID_5_" d="M3.674 8.4H2.041a2.1 2.1 0 0 1-1.5-.516A1.868 1.868 0 0 1 0 6.465V1.933A1.868 1.868 0 0 1 .544.516 2.1 2.1 0 0 1 2.041 0h1.633a2.1 2.1 0 0 1 1.5.516 1.868 1.868 0 0 1 .544 1.417v4.532a1.868 1.868 0 0 1-.544 1.418 2.1 2.1 0 0 1-1.5.517zM2.155.838a1 1 0 0 0-1.134 1.138v4.446a1.128 1.128 0 0 0 .259.848 1.177 1.177 0 0 0 .875.29H3.56a1.018 1.018 0 0 0 1.158-1.138V1.976A1.017 1.017 0 0 0 3.56.838z" class="cls-1" transform="translate(51.759 .172)"/>
        <path id="XMLID_8_" d="M.794 8.4H.182C.056 8.4 0 8.345 0 8.226V.194A.169.169 0 0 1 .182 0H3.4a2.1 2.1 0 0 1 1.5.516 1.865 1.865 0 0 1 .544 1.417v1.439A1.868 1.868 0 0 1 4.9 4.79a2.1 2.1 0 0 1-1.5.51H1.134c-.086 0-.134.044-.134.113v2.77C.973 8.344.922 8.4.794 8.4zm.34-7.56C1.048.838 1 .877 1 .945v3.393a.092.092 0 0 0 .012.084.154.154 0 0 0 .124.046h2.13c.778 0 1.157-.365 1.157-1.117V1.976A1.017 1.017 0 0 0 3.266.838z" class="cls-1" transform="translate(59.538 .172)"/>
        <path id="XMLID_11_" d="M.046 8.2V7.023a1.714 1.714 0 0 1 .77-1.439L3.47 3.608a1.451 1.451 0 0 0 .68-1.224v-.473c0-.73-.386-1.117-1.179-1.117h-.839C1.361.795.975 1.16.975 1.911v.537a.169.169 0 0 1-.181.193H.181A.169.169 0 0 1 0 2.448V1.89A1.779 1.779 0 0 1 .544.494 2.081 2.081 0 0 1 2.041 0h1.111a2.18 2.18 0 0 1 1.5.494 1.81 1.81 0 0 1 .544 1.4v.537a1.98 1.98 0 0 1-.862 1.654L1.633 6.1a1.023 1.023 0 0 0-.454.816v.6h3.856c.136 0 .2.064.2.172v.494c0 .129-.068.172-.2.172H.295C.113 8.376.046 8.312.046 8.2z" class="cls-1" transform="translate(69.926 .193)"/>
        <path id="XMLID_13_" d="M3.016 3.8H2q-.578 0-.748.322c-.113.215-.227.322-.363.322h-.64c-.136 0-.182-.064-.182-.172V.193A.169.169 0 0 1 .249 0h4.559q.2 0 .2.193v.516c0 .129-.068.193-.2.193H1.066v2.771a1.133 1.133 0 0 1 1.179-.644h1a2.021 2.021 0 0 1 1.452.494A1.8 1.8 0 0 1 5.216 4.9v1.586A1.859 1.859 0 0 1 4.672 7.9a2.089 2.089 0 0 1-1.5.515H2.041A2.089 2.089 0 0 1 .544 7.9 1.858 1.858 0 0 1 0 6.486v-.43a.169.169 0 0 1 .181-.193h.613c.136 0 .181.064.181.193v.387a1.01 1.01 0 0 0 1.134 1.138h.907A1.034 1.034 0 0 0 4.2 6.443V5a1.186 1.186 0 0 0-.3-.9 1.168 1.168 0 0 0-.884-.3z" class="cls-1" transform="translate(76.639 .172)"/>
        <path id="XMLID_15_" d="M3.4 8.4H2.019a2.037 2.037 0 0 1-1.474-.518A1.865 1.865 0 0 1 0 6.465V1.933A1.868 1.868 0 0 1 .545.516 2.064 2.064 0 0 1 2.019 0H3.4a2.037 2.037 0 0 1 1.476.516 1.868 1.868 0 0 1 .544 1.417v4.532a1.868 1.868 0 0 1-.544 1.418A1.992 1.992 0 0 1 3.4 8.4zM2.155.838a1 1 0 0 0-1.134 1.138v4.446A.991.991 0 0 0 2.155 7.56h1.134a1.017 1.017 0 0 0 1.156-1.138V1.976A1.017 1.017 0 0 0 3.289.838z" class="cls-1" transform="translate(83.421 .172)"/>
    </g>
</svg>
