<svg xmlns="http://www.w3.org/2000/svg" width="189.951" height="49" viewBox="0 0 189.951 49">
    <defs>
        <style>
            .cls-1,.cls-3{fill:none}.cls-2,.cls-4,.cls-6{fill:#fff}.cls-3{stroke-miterlimit:10}.cls-4{fill-rule:evenodd}.cls-5,.cls-6{stroke:none}
        </style>
    </defs>
    <g id="Group_652" data-name="Group 652" transform="translate(-294.049 -608)">
        <g id="Group_366" data-name="Group 366" transform="translate(42.444 529.508)">
            <path id="Path_1727" d="M490.794 134.359l1.65.075 1.936 3.088h2.129l-2.054-3.339a3.5 3.5 0 0 0 1.545-1.036 3.161 3.161 0 0 0 .192-2.849 2.5 2.5 0 0 0-.688-.872 2.9 2.9 0 0 0-1.019-.521 4.382 4.382 0 0 0-1.23-.169h-4.313v8.787h1.852z" class="cls-1" data-name="Path 1727" transform="translate(-157.143 -33.266)"/>
            <path id="Path_1728" d="M471.306 167.247a2.556 2.556 0 0 1-.5 1.67 1.668 1.668 0 0 1-1.36.6 1.633 1.633 0 0 1-1.353-.615 2.628 2.628 0 0 1-.49-1.681v-4.908h-1.8v4.933a5.062 5.062 0 0 0 .264 1.707 3.536 3.536 0 0 0 .741 1.249 3.1 3.1 0 0 0 1.153.772 4.069 4.069 0 0 0 1.489.264 3.482 3.482 0 0 0 2.694-1.048 4.219 4.219 0 0 0 .966-2.968v-4.908h-1.8z" class="cls-1" data-name="Path 1728" transform="translate(-141.821 -55.499)"/>
            <path id="Path_1729" d="M497.185 166.222a3.538 3.538 0 0 0-.966-.471q-.535-.169-1.077-.295t-.889-.226a2.791 2.791 0 0 1-.554-.213.725.725 0 0 1-.29-.257.7.7 0 0 1-.084-.357.64.64 0 0 1 .284-.54 1.269 1.269 0 0 1 .4-.182 2.27 2.27 0 0 1 .606-.069 2.6 2.6 0 0 1 1.115.232 3.3 3.3 0 0 1 .934.672l1.3-1.23a4.859 4.859 0 0 0-1.437-1.017 4.755 4.755 0 0 0-3.106-.189 3.208 3.208 0 0 0-1.025.509 2.43 2.43 0 0 0-.69.81 2.283 2.283 0 0 0-.251 1.08 2.565 2.565 0 0 0 .206 1.092 1.958 1.958 0 0 0 .58.728 3.264 3.264 0 0 0 .9.477 9.416 9.416 0 0 0 1.14.326q.632.138 1.031.264a2.562 2.562 0 0 1 .612.263.784.784 0 0 1 .29.295.822.822 0 0 1 .078.37.783.783 0 0 1-.38.728 2.412 2.412 0 0 1-1.192.226 3.348 3.348 0 0 1-1.244-.232 2.792 2.792 0 0 1-1.063-.772l-1.3 1.13a3.48 3.48 0 0 0 1.443 1.167 4.872 4.872 0 0 0 2.062.427 5.553 5.553 0 0 0 1.592-.2 3.071 3.071 0 0 0 1.1-.571 2.237 2.237 0 0 0 .644-.885 3.042 3.042 0 0 0 .206-1.142 2.314 2.314 0 0 0-.271-1.18 2.381 2.381 0 0 0-.704-.768z" class="cls-1" data-name="Path 1729" transform="translate(-158.577 -55.227)"/>
            <path id="Path_1730" d="M466.466 137.389c1.121 0 3.062-.613 3.615-1.706l-1.317-1.167a3.225 3.225 0 0 1-2.245 1.128 1.976 1.976 0 0 1-.926-.213 2.044 2.044 0 0 1-.694-.59 2.671 2.671 0 0 1-.43-.885 3.961 3.961 0 0 1-.146-1.1 4.063 4.063 0 0 1 .146-1.123 2.672 2.672 0 0 1 .423-.879 1.946 1.946 0 0 1 .688-.577 2.025 2.025 0 0 1 .926-.207 3.062 3.062 0 0 1 2.137 1.066l1.284-1.238a4.86 4.86 0 0 0-2.218-1.428 4.471 4.471 0 0 0-1.178-.144 4.088 4.088 0 0 0-1.667.333 3.809 3.809 0 0 0-1.3.929 4.263 4.263 0 0 0-.847 1.431 5.325 5.325 0 0 0-.3 1.839 5.684 5.684 0 0 0 .291 1.876 4.1 4.1 0 0 0 .827 1.425 3.675 3.675 0 0 0 1.277.91 4.128 4.128 0 0 0 1.654.32z" class="cls-1" data-name="Path 1730" transform="translate(-139.581 -32.995)"/>
            <path id="Path_1731" d="M441.16 137.389c1.121 0 3.062-.613 3.615-1.706l-1.317-1.167a3.225 3.225 0 0 1-2.246 1.128 1.975 1.975 0 0 1-.926-.213 2.044 2.044 0 0 1-.694-.59 2.672 2.672 0 0 1-.43-.885 3.975 3.975 0 0 1-.146-1.1 4.076 4.076 0 0 1 .146-1.123 2.673 2.673 0 0 1 .423-.879 1.944 1.944 0 0 1 .688-.577 2.023 2.023 0 0 1 .926-.207 3.062 3.062 0 0 1 2.138 1.066l1.284-1.238a4.857 4.857 0 0 0-2.218-1.428 4.468 4.468 0 0 0-1.177-.144 4.088 4.088 0 0 0-1.667.333 3.818 3.818 0 0 0-1.3.929 4.268 4.268 0 0 0-.846 1.431 5.324 5.324 0 0 0-.3 1.839 5.668 5.668 0 0 0 .291 1.876 4.091 4.091 0 0 0 .827 1.425 3.679 3.679 0 0 0 1.277.91 4.128 4.128 0 0 0 1.652.32z" class="cls-1" data-name="Path 1731" transform="translate(-122.825 -32.995)"/>
            <path id="Path_1732" d="M446.656 166.343a1.889 1.889 0 0 0 .7-.7 1.983 1.983 0 0 0 .252-1 2.049 2.049 0 0 0-.773-1.726 3.332 3.332 0 0 0-2.088-.6h-4.137v8.783h4.1a4.454 4.454 0 0 0 1.314-.182 2.809 2.809 0 0 0 1.012-.54 2.428 2.428 0 0 0 .651-.891 3.042 3.042 0 0 0 .232-1.224 1.938 1.938 0 0 0-.361-1.2 2.251 2.251 0 0 0-.902-.72z" class="cls-1" data-name="Path 1732" transform="translate(-125.143 -55.499)"/>
            <path id="Rectangle_234" d="M0 0h1.852v8.787H0z" class="cls-1" data-name="Rectangle 234" transform="translate(357.825 95.469)"/>
            <path id="Path_1733" d="M521.387 135.8h-4.775v-2.121h3.843v-1.707h-3.843v-1.519h4.577v-1.719h-6.429v8.787h6.627z" class="cls-1" data-name="Path 1733" transform="translate(-174.236 -33.267)"/>
            <path id="Path_1734" d="M413.509 128.735l-3.545 8.787h1.984l.728-1.958h3.387l.727 1.958h2.037l-3.519-8.787z" class="cls-1" data-name="Path 1734" transform="translate(-104.85 -33.267)"/>
            <path id="Path_1735" d="M545.558 135.117a4.534 4.534 0 0 0 .4-1.989 5.288 5.288 0 0 0-.35-2.04 3.583 3.583 0 0 0-.966-1.362 3.727 3.727 0 0 0-1.455-.759 6.863 6.863 0 0 0-1.832-.232h-2.9v8.787h2.766a6.146 6.146 0 0 0 1.739-.251 4.405 4.405 0 0 0 1.521-.785 3.868 3.868 0 0 0 1.077-1.369z" class="cls-1" data-name="Path 1735" transform="translate(-189.929 -33.266)"/>
            <path id="Path_1736" d="M630.414 129.726a3.729 3.729 0 0 0-1.454-.759 6.865 6.865 0 0 0-1.832-.232h-2.9v8.787h2.765a6.148 6.148 0 0 0 1.74-.251 4.407 4.407 0 0 0 1.522-.785 3.882 3.882 0 0 0 1.071-1.368 4.535 4.535 0 0 0 .4-1.989 5.277 5.277 0 0 0-.35-2.04 3.581 3.581 0 0 0-.962-1.363z" class="cls-1" data-name="Path 1736" transform="translate(-246.717 -33.266)"/>
            <path id="Path_1737" d="M604.221 166.222a3.533 3.533 0 0 0-.966-.471q-.536-.169-1.076-.295t-.889-.226a2.783 2.783 0 0 1-.555-.213.715.715 0 0 1-.29-.257.7.7 0 0 1-.085-.357.64.64 0 0 1 .284-.54 1.275 1.275 0 0 1 .4-.182 2.27 2.27 0 0 1 .606-.069 2.6 2.6 0 0 1 1.115.232 3.307 3.307 0 0 1 .935.672l1.3-1.23a4.849 4.849 0 0 0-1.436-1.017 4.758 4.758 0 0 0-3.107-.189 3.213 3.213 0 0 0-1.024.509 2.44 2.44 0 0 0-.69.81 2.279 2.279 0 0 0-.251 1.08 2.548 2.548 0 0 0 .207 1.092 1.951 1.951 0 0 0 .579.728 3.265 3.265 0 0 0 .9.477 9.461 9.461 0 0 0 1.141.326q.632.138 1.03.264a2.592 2.592 0 0 1 .613.263.8.8 0 0 1 .29.295.84.84 0 0 1 .076.37.782.782 0 0 1-.38.728 2.413 2.413 0 0 1-1.192.226 3.346 3.346 0 0 1-1.243-.232 2.778 2.778 0 0 1-1.063-.772l-1.3 1.13a3.481 3.481 0 0 0 1.444 1.167 4.871 4.871 0 0 0 2.062.427 5.546 5.546 0 0 0 1.591-.2 3.065 3.065 0 0 0 1.1-.571 2.227 2.227 0 0 0 .644-.885 3.029 3.029 0 0 0 .207-1.142 2.322 2.322 0 0 0-.271-1.18 2.385 2.385 0 0 0-.706-.768z" class="cls-1" data-name="Path 1737" transform="translate(-229.446 -55.227)"/>
            <path id="Path_1738" d="M602.361 133.681h3.839v-1.707h-3.843v-1.519h4.577v-1.719h-6.429v8.787h6.628V135.8h-4.776z" class="cls-1" data-name="Path 1738" transform="translate(-231.012 -33.267)"/>
            <path id="Rectangle_235" d="M0 0h1.804v8.787H0z" class="cls-1" data-name="Rectangle 235" transform="translate(341.043 106.815)"/>
            <path id="Path_1739" d="M575.767 130.468h2.66v7.055h1.852v-7.055h2.659v-1.732h-7.17z" class="cls-1" data-name="Path 1739" transform="translate(-214.63 -33.267)"/>
            <path id="Path_1740" d="M556.5 167.259h3.843v-1.707H556.5v-1.519h4.577v-1.719h-6.43v8.786h6.628v-1.72H556.5z" class="cls-1" data-name="Path 1740" transform="translate(-200.647 -55.499)"/>
            <path id="Path_1741" d="M532.715 166.029c0 .126 0 .281.006.465s.007.372.007.565 0 .358.007.521.007.287.007.37a5.192 5.192 0 0 0-.278-.458q-.186-.282-.354-.533l-3.2-4.644h-1.727v8.785h1.778v-3.866q0-.189-.006-.464t-.007-.552q0-.288-.006-.534t-.006-.37a4.973 4.973 0 0 0 .277.458l.354.534 3.312 4.8h1.611v-8.786h-1.779z" class="cls-1" data-name="Path 1741" transform="translate(-182.465 -55.499)"/>
            <path id="Path_1742" d="M581.279 166.222a3.539 3.539 0 0 0-.967-.471q-.536-.169-1.076-.295t-.889-.226a2.805 2.805 0 0 1-.555-.213.72.72 0 0 1-.29-.257.7.7 0 0 1-.084-.357.643.643 0 0 1 .284-.54 1.265 1.265 0 0 1 .4-.182 2.269 2.269 0 0 1 .606-.069 2.6 2.6 0 0 1 1.115.232 3.3 3.3 0 0 1 .934.672l1.3-1.23a4.859 4.859 0 0 0-1.438-1.017 4.753 4.753 0 0 0-3.106-.189 3.2 3.2 0 0 0-1.024.509 2.419 2.419 0 0 0-.69.81 2.272 2.272 0 0 0-.251 1.08 2.554 2.554 0 0 0 .207 1.092 1.953 1.953 0 0 0 .58.728 3.259 3.259 0 0 0 .9.477 9.38 9.38 0 0 0 1.14.326q.632.138 1.031.264a2.593 2.593 0 0 1 .612.263.785.785 0 0 1 .29.295.831.831 0 0 1 .077.37.782.782 0 0 1-.38.728 2.411 2.411 0 0 1-1.192.226 3.351 3.351 0 0 1-1.244-.232 2.784 2.784 0 0 1-1.062-.772l-1.3 1.13a3.484 3.484 0 0 0 1.444 1.167 4.872 4.872 0 0 0 2.062.427 5.552 5.552 0 0 0 1.591-.2 3.057 3.057 0 0 0 1.1-.571 2.235 2.235 0 0 0 .645-.885 3.05 3.05 0 0 0 .206-1.142 2.314 2.314 0 0 0-.271-1.18 2.392 2.392 0 0 0-.705-.768z" class="cls-1" data-name="Path 1742" transform="translate(-214.256 -55.227)"/>
            <path id="Path_1743" d="M483.839 78.492H398.21v49h85.629a6.785 6.785 0 0 0 6.785-6.785v-35.43a6.785 6.785 0 0 0-6.785-6.785zm-28.946 16.977h1.852v8.787h-1.852zm-45.886 8.787l-.727-1.958h-3.387l-.727 1.958h-1.984l3.545-8.787h1.8l3.519 8.787zm2.639-2.517a5.668 5.668 0 0 1-.291-1.876 5.325 5.325 0 0 1 .3-1.839 4.267 4.267 0 0 1 .846-1.431 3.817 3.817 0 0 1 1.3-.929 4.088 4.088 0 0 1 1.667-.332 4.467 4.467 0 0 1 1.177.144 4.857 4.857 0 0 1 2.218 1.428l-1.284 1.238a3.062 3.062 0 0 0-2.138-1.066 2.023 2.023 0 0 0-.926.207 1.943 1.943 0 0 0-.688.577 2.672 2.672 0 0 0-.423.879 4.077 4.077 0 0 0-.146 1.123 3.975 3.975 0 0 0 .146 1.1 2.674 2.674 0 0 0 .43.885 2.044 2.044 0 0 0 .694.59 1.975 1.975 0 0 0 .926.213 3.225 3.225 0 0 0 2.246-1.128l1.317 1.167c-.553 1.092-2.494 1.706-3.615 1.706a4.129 4.129 0 0 1-1.653-.32 3.678 3.678 0 0 1-1.277-.91 4.09 4.09 0 0 1-.826-1.427zm7.967 12.25a2.428 2.428 0 0 1-.651.891 2.81 2.81 0 0 1-1.012.54 4.455 4.455 0 0 1-1.314.182h-4.1v-8.786h4.137a3.332 3.332 0 0 1 2.088.6 2.049 2.049 0 0 1 .773 1.726 1.984 1.984 0 0 1-.252 1 1.888 1.888 0 0 1-.7.7 2.252 2.252 0 0 1 .9.716 1.938 1.938 0 0 1 .361 1.2 3.041 3.041 0 0 1-.23 1.23zm.584-12.25a5.685 5.685 0 0 1-.291-1.876 5.325 5.325 0 0 1 .3-1.839 4.261 4.261 0 0 1 .847-1.431 3.81 3.81 0 0 1 1.3-.929 4.088 4.088 0 0 1 1.667-.332 4.47 4.47 0 0 1 1.178.144 4.861 4.861 0 0 1 2.218 1.428l-1.284 1.238a3.062 3.062 0 0 0-2.138-1.066 2.024 2.024 0 0 0-.926.207 1.945 1.945 0 0 0-.688.577 2.671 2.671 0 0 0-.423.879 4.064 4.064 0 0 0-.146 1.123 3.962 3.962 0 0 0 .146 1.1 2.67 2.67 0 0 0 .43.885 2.044 2.044 0 0 0 .694.59 1.977 1.977 0 0 0 .926.213 3.226 3.226 0 0 0 2.245-1.128l1.317 1.167c-.553 1.092-2.495 1.706-3.615 1.706a4.128 4.128 0 0 1-1.653-.32 3.675 3.675 0 0 1-1.277-.91 4.1 4.1 0 0 1-.824-1.427zm8.16 9.984a4.219 4.219 0 0 1-.966 2.968 3.482 3.482 0 0 1-2.694 1.048 4.069 4.069 0 0 1-1.489-.264 3.105 3.105 0 0 1-1.153-.772 3.537 3.537 0 0 1-.741-1.249 5.062 5.062 0 0 1-.264-1.707v-4.933h1.8v4.908a2.628 2.628 0 0 0 .49 1.681 1.633 1.633 0 0 0 1.353.615 1.668 1.668 0 0 0 1.36-.6 2.556 2.556 0 0 0 .5-1.67v-4.933h1.8zm.511-16.254h4.313a4.383 4.383 0 0 1 1.23.169 2.9 2.9 0 0 1 1.019.521 2.5 2.5 0 0 1 .688.872 3.161 3.161 0 0 1-.192 2.849 3.5 3.5 0 0 1-1.544 1.036l2.054 3.339h-2.129l-1.936-3.088-1.65-.075v3.163h-1.852zm7.576 18.614a2.236 2.236 0 0 1-.644.885 3.072 3.072 0 0 1-1.1.571 5.554 5.554 0 0 1-1.592.2 4.873 4.873 0 0 1-2.062-.427 3.479 3.479 0 0 1-1.443-1.167l1.3-1.13a2.791 2.791 0 0 0 1.063.772 3.348 3.348 0 0 0 1.244.232 2.412 2.412 0 0 0 1.192-.226.783.783 0 0 0 .38-.728.821.821 0 0 0-.078-.37.784.784 0 0 0-.29-.295 2.561 2.561 0 0 0-.612-.263q-.4-.127-1.031-.264a9.407 9.407 0 0 1-1.14-.326 3.263 3.263 0 0 1-.9-.477 1.958 1.958 0 0 1-.58-.728 2.564 2.564 0 0 1-.206-1.092 2.283 2.283 0 0 1 .251-1.08 2.429 2.429 0 0 1 .69-.81 3.206 3.206 0 0 1 1.025-.509 4.755 4.755 0 0 1 3.106.189 4.857 4.857 0 0 1 1.437 1.017l-1.3 1.23a3.3 3.3 0 0 0-.934-.672 2.6 2.6 0 0 0-1.115-.232 2.271 2.271 0 0 0-.606.069 1.27 1.27 0 0 0-.4.182.64.64 0 0 0-.284.54.7.7 0 0 0 .084.357.725.725 0 0 0 .29.257 2.788 2.788 0 0 0 .554.213q.348.1.889.226t1.077.295a3.538 3.538 0 0 1 .966.471 2.38 2.38 0 0 1 .7.765 2.314 2.314 0 0 1 .271 1.18 3.042 3.042 0 0 1-.203 1.144zm1.148-18.614h6.429v1.719h-4.577v1.519h3.843v1.707h-3.843v2.121h4.775v1.72h-6.627zm2.324 20.132h-1.8v-8.786h1.8zm9.183 0h-1.611l-3.312-4.8q-.168-.251-.354-.534a5 5 0 0 1-.277-.458q0 .126.007.37t.006.534q0 .276.007.552t.007.464v3.871h-1.782v-8.786h1.727l3.2 4.644q.168.251.354.533a5.207 5.207 0 0 1 .278.458c0-.083 0-.206-.007-.37s-.007-.337-.007-.521 0-.38-.007-.565-.006-.339-.006-.465v-3.715h1.778zm-.733-11.345H445.6v-8.787h2.9a6.864 6.864 0 0 1 1.832.232 3.727 3.727 0 0 1 1.455.759 3.583 3.583 0 0 1 .966 1.362 5.289 5.289 0 0 1 .35 2.04 4.533 4.533 0 0 1-.4 1.989 3.869 3.869 0 0 1-1.071 1.368 4.406 4.406 0 0 1-1.532.781 6.145 6.145 0 0 1-1.734.256zM457.7 115.6h-6.628v-8.786h6.43v1.719h-4.577v1.519h3.843v1.707h-3.843v2.122h4.775zm7.162-1.519a2.236 2.236 0 0 1-.645.885 3.056 3.056 0 0 1-1.1.571 5.553 5.553 0 0 1-1.591.2 4.871 4.871 0 0 1-2.062-.427 3.484 3.484 0 0 1-1.444-1.167l1.3-1.13a2.783 2.783 0 0 0 1.062.772 3.351 3.351 0 0 0 1.244.232 2.41 2.41 0 0 0 1.192-.226.782.782 0 0 0 .38-.728.83.83 0 0 0-.077-.37.785.785 0 0 0-.29-.295 2.593 2.593 0 0 0-.612-.263q-.4-.127-1.031-.264a9.376 9.376 0 0 1-1.14-.326 3.259 3.259 0 0 1-.9-.477 1.954 1.954 0 0 1-.579-.728 2.553 2.553 0 0 1-.207-1.092 2.272 2.272 0 0 1 .251-1.08 2.42 2.42 0 0 1 .69-.81 3.2 3.2 0 0 1 1.024-.509 4.753 4.753 0 0 1 3.106.189 4.858 4.858 0 0 1 1.438 1.017l-1.3 1.23a3.305 3.305 0 0 0-.934-.672 2.6 2.6 0 0 0-1.115-.232 2.269 2.269 0 0 0-.606.069 1.264 1.264 0 0 0-.4.182.644.644 0 0 0-.284.54.7.7 0 0 0 .085.357.719.719 0 0 0 .29.257 2.8 2.8 0 0 0 .554.213q.348.1.889.226t1.076.295a3.54 3.54 0 0 1 .967.471 2.391 2.391 0 0 1 .7.765 2.315 2.315 0 0 1 .271 1.18 3.048 3.048 0 0 1-.205 1.146zm.517-16.881h-2.659v7.055h-1.852V97.2h-2.66v-1.731h7.17zm7.234 16.881a2.227 2.227 0 0 1-.644.885 3.066 3.066 0 0 1-1.1.571 5.547 5.547 0 0 1-1.591.2 4.871 4.871 0 0 1-2.062-.427 3.481 3.481 0 0 1-1.444-1.167l1.3-1.13a2.778 2.778 0 0 0 1.063.772 3.346 3.346 0 0 0 1.243.232 2.413 2.413 0 0 0 1.192-.226.782.782 0 0 0 .38-.728.84.84 0 0 0-.076-.37.8.8 0 0 0-.29-.295 2.591 2.591 0 0 0-.613-.263q-.4-.127-1.03-.264a9.462 9.462 0 0 1-1.141-.326 3.264 3.264 0 0 1-.9-.477 1.951 1.951 0 0 1-.58-.728 2.549 2.549 0 0 1-.207-1.092 2.28 2.28 0 0 1 .251-1.08 2.441 2.441 0 0 1 .69-.81 3.213 3.213 0 0 1 1.024-.509 4.758 4.758 0 0 1 3.107.189 4.847 4.847 0 0 1 1.436 1.017l-1.3 1.23a3.306 3.306 0 0 0-.935-.672 2.6 2.6 0 0 0-1.115-.232 2.27 2.27 0 0 0-.606.069 1.276 1.276 0 0 0-.4.182.639.639 0 0 0-.284.54.7.7 0 0 0 .084.357.716.716 0 0 0 .29.257 2.788 2.788 0 0 0 .555.213q.349.1.889.226t1.077.295a3.537 3.537 0 0 1 .966.471 2.384 2.384 0 0 1 .7.765 2.321 2.321 0 0 1 .271 1.18 3.029 3.029 0 0 1-.203 1.146zm.584-9.827h-6.628v-8.785h6.429v1.719h-4.577v1.519h3.843v1.707h-3.843v2.121h4.776zm8.485-2.4a3.88 3.88 0 0 1-1.071 1.368 4.406 4.406 0 0 1-1.522.785 6.147 6.147 0 0 1-1.739.251h-2.77v-8.789h2.9a6.865 6.865 0 0 1 1.832.232 3.728 3.728 0 0 1 1.454.759 3.578 3.578 0 0 1 .966 1.362 5.275 5.275 0 0 1 .35 2.04 4.533 4.533 0 0 1-.404 1.989z" class="cls-2" data-name="Path 1743" transform="translate(-97.068)"/>
            <g id="Path_1744" class="cls-3" data-name="Path 1744">
                <path d="M258.39 78.492a6.785 6.785 0 0 0-6.785 6.785v35.43a6.785 6.785 0 0 0 6.785 6.785h43.09v-49z" class="cls-5"/>
                <path d="M258.39 79.492a5.791 5.791 0 0 0-5.785 5.785v35.43a5.791 5.791 0 0 0 5.785 5.785h42.09v-47h-42.09m0-1h43.09v49h-43.09a6.785 6.785 0 0 1-6.785-6.785v-35.43a6.785 6.785 0 0 1 6.785-6.785z" class="cls-6"/>
            </g>
            <path id="Path_1745" d="M316.208 123.578l-2.12 2.918a3.953 3.953 0 0 0 .717 5.1l3.929 2.837c.674.487.728.969.408 1.484l.571.424 1.989-2.755a3.729 3.729 0 0 0-.7-5.347l-3.961-2.885a.994.994 0 0 1-.261-1.369l-.57-.408z" class="cls-4" data-name="Path 1745" transform="translate(-40.958 -29.852)"/>
            <path id="Path_1746" d="M323.455 85.395l-3.3 4.563a5.661 5.661 0 0 0 1.129 7.346l5.424 3.981a3.062 3.062 0 0 1 .443 3.916l.46.345 3.741-5.264a5.539 5.539 0 0 0-1.056-7.772L324.5 88.3a1.763 1.763 0 0 1-.541-2.548l-.5-.353z" class="cls-4" data-name="Path 1746" transform="translate(-44.805 -4.571)"/>
            <path id="Path_1747" d="M305.915 166.26h4.372l.779 2.651h7.145l.779-2.651h4.372l-.573-1.949h-16.3l-.573 1.949z" class="cls-4" data-name="Path 1747" transform="translate(-35.959 -56.821)"/>
            <path id="Path_1748" d="M371.277 208.727a.316.316 0 0 0-.016-.107.223.223 0 0 0-.053-.085.38.38 0 0 0-.1-.071 1.1 1.1 0 0 0-.154-.065 1.452 1.452 0 0 1-.137-.055.339.339 0 0 1-.08-.05.142.142 0 0 1-.038-.053.194.194 0 0 1-.009-.061.17.17 0 0 1 .012-.061.136.136 0 0 1 .039-.05.2.2 0 0 1 .068-.035.328.328 0 0 1 .1-.013.374.374 0 0 1 .146.026.485.485 0 0 1 .122.075l.08-.094a.615.615 0 0 0-.149-.086.58.58 0 0 0-.333-.012.321.321 0 0 0-.11.055.261.261 0 0 0-.071.088.257.257 0 0 0-.025.116.3.3 0 0 0 .017.1.22.22 0 0 0 .054.081.41.41 0 0 0 .1.068 1.09 1.09 0 0 0 .152.063 1.178 1.178 0 0 1 .127.052.416.416 0 0 1 .082.052.145.145 0 0 1 .044.057.179.179 0 0 1 .013.068.162.162 0 0 1-.064.136.283.283 0 0 1-.176.05.358.358 0 0 1-.159-.036.558.558 0 0 1-.138-.094l-.083.09a.545.545 0 0 0 .164.108.515.515 0 0 0 .211.043.482.482 0 0 0 .156-.024.351.351 0 0 0 .116-.063.266.266 0 0 0 .073-.1.291.291 0 0 0 .025-.12z" class="cls-4" data-name="Path 1748" transform="translate(-78.743 -85.689)"/>
            <path id="Path_1749" d="M374.272 209.046v-1.085h-.135l-.266.649-.022.052-.023.059-.021.056-.014.043c0-.011-.008-.025-.014-.043l-.021-.055-.023-.059-.021-.054-.263-.649h-.139v1.085h.12v-.851l.012.038c0 .015.01.03.016.046l.018.05.019.046.293.7.3-.7q.01-.022.019-.047l.019-.049.017-.046.012-.038v.851z" class="cls-4" data-name="Path 1749" transform="translate(-80.582 -85.722)"/>
            <path id="Path_1750" d="M301.181 189.387c-.186-1.261-.694-1.562-1.71-2.01a2.258 2.258 0 0 0 1.24-2.016c0-1.811-1.483-2.549-3.1-2.549h-4.521v9.613h4.478c1.911 0 3.938-.837 3.613-3.038zm-6.048-4.738h2.349a1.028 1.028 0 1 1 .092 2.05h-2.441zm2.62 5.959h-2.62v-2.193h2.62c1.926 0 1.809 2.193 0 2.193z" class="cls-4" data-name="Path 1750" transform="translate(-27.466 -69.071)"/>
            <path id="Path_1751" d="M327.745 189.387c-.186-1.261-.694-1.562-1.71-2.01a2.258 2.258 0 0 0 1.24-2.016c0-1.811-1.483-2.549-3.1-2.549h-4.521v9.613h4.478c1.911 0 3.938-.837 3.613-3.038zm-6.048-4.738h2.349a1.028 1.028 0 1 1 .093 2.05H321.7zm2.619 5.959H321.7v-2.193h2.619c1.924 0 1.806 2.193-.003 2.193z" class="cls-4" data-name="Path 1751" transform="translate(-45.054 -69.071)"/>
            <path id="Path_1752" d="M354.309 189.387c-.186-1.261-.694-1.562-1.71-2.01a2.257 2.257 0 0 0 1.24-2.016c0-1.811-1.483-2.549-3.1-2.549h-4.521v9.613h4.479c1.91 0 3.937-.837 3.612-3.038zm-6.048-4.738h2.349a1.028 1.028 0 1 1 .092 2.05h-2.441zm2.619 5.959h-2.619v-2.193h2.619c1.927 0 1.809 2.193 0 2.193z" class="cls-4" data-name="Path 1752" transform="translate(-62.643 -69.071)"/>
            <path id="Path_1753" d="M421.119 135.85q-.126-.364-.192-.615-.066.251-.192.615t-.271.753l-.6 1.594h2.117l-.6-1.594q-.137-.388-.262-.753z" class="cls-2" data-name="Path 1753" transform="translate(-111.409 -37.57)"/>
            <path id="Path_1754" d="M449.014 168.541a.82.82 0 0 0 .225-.6.767.767 0 0 0-.258-.628 1.339 1.339 0 0 0-.85-.214h-2.294v1.67h2.384a1.084 1.084 0 0 0 .793-.228z" class="cls-2" data-name="Path 1754" transform="translate(-128.602 -58.671)"/>
            <path id="Path_1755" d="M448.234 176.652h-2.4v2.272h2.4a1.347 1.347 0 0 0 .973-.307 1.111 1.111 0 0 0 .316-.835q0-1.13-1.289-1.13z" class="cls-2" data-name="Path 1755" transform="translate(-128.602 -64.992)"/>
            <path id="Path_1756" d="M630.69 133.788h-.98v5.372h.913a3.688 3.688 0 0 0 1.263-.195 2.309 2.309 0 0 0 .881-.546 2.238 2.238 0 0 0 .515-.847 3.325 3.325 0 0 0 .172-1.1 2.8 2.8 0 0 0-.648-2.015 2.846 2.846 0 0 0-2.116-.669z" class="cls-2" data-name="Path 1756" transform="translate(-250.346 -36.612)"/>
            <path id="Path_1757" d="M544.924 133.788h-.979v5.372h.913a3.685 3.685 0 0 0 1.262-.195 2.306 2.306 0 0 0 .881-.546 2.249 2.249 0 0 0 .515-.847 3.32 3.32 0 0 0 .172-1.1 2.8 2.8 0 0 0-.648-2.015 2.845 2.845 0 0 0-2.116-.669z" class="cls-2" data-name="Path 1757" transform="translate(-193.56 -36.612)"/>
            <path id="Path_1758" d="M498.167 134.9a1 1 0 0 0-.35-.86 1.614 1.614 0 0 0-.972-.257h-2.421v2.26h2.421q1.322.005 1.322-1.143z" class="cls-2" data-name="Path 1758" transform="translate(-160.772 -36.612)"/>
        </g>
        <g id="Group_651" data-name="Group 651" transform="translate(-226 608.75)">
            <path id="Path_1987" d="M688 2.25a22 22 0 1 0 22 22 22 22 0 0 0-22-22zm-.977 29.436l-1.3-3.378h-5.945l-1.227 3.378h-3.185l5.792-14.873h3.176l5.956 14.873zm13.61-6.406h-3.906v3.865h-2.6V25.28h-3.9v-2.668h3.9v-3.865h2.6v3.865h3.906z" class="cls-2" data-name="Path 1987"/>
            <path id="Path_1988" d="M702.757 52.852h4.058l-2.049-5.519z" class="cls-2" data-name="Path 1988" transform="translate(-22.054 -27.05)"/>
        </g>
    </g>
</svg>
