<svg xmlns="http://www.w3.org/2000/svg" width="168.501" height="58.644" viewBox="0 0 168.501 58.644">
    <defs>
        <style>
            .cls-1,.cls-3{fill:none;stroke:#fff;stroke-miterlimit:10}.cls-1{fill-rule:evenodd}.cls-2{fill:#fff}
        </style>
    </defs>
    <g id="Group_292" data-name="Group 292" transform="translate(709.126 -292.784)">
        <path id="Path_1648" d="M-704.331 355.813a4.221 4.221 0 0 1-4.294-4.143v-42.807a4.221 4.221 0 0 1 4.294-4.143" class="cls-1" data-name="Path 1648" transform="translate(0 -7.815)"/>
        <g id="Group_290" data-name="Group 290" transform="translate(-696.584 303.974)">
            <path id="Path_1649" d="M-685.332 337.816h2.809v6.242h5.925v-6.242h2.813v15.322h-2.815v-6.373h-5.925v6.373h-2.809v-15.322z" class="cls-2" data-name="Path 1649" transform="translate(685.332 -333.46)"/>
            <path id="Path_1650" d="M-639.982 355.231a2.33 2.33 0 0 1-2.327 2.326 2.33 2.33 0 0 1-2.327-2.326v-6.6h-2.664v6.6a5 5 0 0 0 4.992 4.991 5 5 0 0 0 4.991-4.991v-6.6h-2.663v6.6" class="cls-2" data-name="Path 1650" transform="translate(660.43 -340.544)"/>
            <path id="Path_1651" d="M-607.858 341.628a4.1 4.1 0 0 0-3.135 1.258v-5.07h-2.673v9.4a5.609 5.609 0 0 0 5.4 5.926 5.851 5.851 0 0 0 5.958-5.755 5.654 5.654 0 0 0-5.55-5.755zm.066 9.037a3.237 3.237 0 0 1-3.2-3.282 3.238 3.238 0 0 1 3.2-3.282 3.2 3.2 0 0 1 2.92 3.282 3.2 3.2 0 0 1-2.92 3.282z" class="cls-2" data-name="Path 1651" transform="translate(638.407 -333.46)"/>
            <path id="Path_1652" d="M-573.824 342.319a1.649 1.649 0 0 1 1.875-1.77 4 4 0 0 1 2.515 1.322l1.747-2.046a5.521 5.521 0 0 0-4.091-1.982c-2.9 0-4.988 1.684-4.988 4.477 0 5.179 6.373 3.537 6.373 6.437a1.834 1.834 0 0 1-1.875 1.684c-1.578 0-2.09-.767-2.814-1.578l-1.94 2a5.731 5.731 0 0 0 4.6 2.281c2.749 0 4.966-1.705 4.966-4.37 0-5.754-6.373-3.964-6.373-6.457" class="cls-2" data-name="Path 1652" transform="translate(614.412 -333.477)"/>
            <path id="Path_1653" d="M-539.158 348.423a5.607 5.607 0 0 0-5.4 5.925v9.42h2.673v-5.094a4.1 4.1 0 0 0 3.135 1.258 5.655 5.655 0 0 0 5.55-5.755 5.851 5.851 0 0 0-5.959-5.755zm.475 9.037a3.239 3.239 0 0 1-3.2-3.282 3.238 3.238 0 0 1 3.2-3.283 3.2 3.2 0 0 1 2.92 3.283 3.2 3.2 0 0 1-2.92 3.282z" class="cls-2" data-name="Path 1653" transform="translate(593.156 -340.406)"/>
            <path id="Path_1654" d="M-463.636 352.68c-1.577 0-2.024-.682-2.024-1.726v-4.625h2.45v-2.344h-2.45v-3.091l-2.706 1.215v9.421c0 2.409 1.662 3.624 3.941 3.624a5.487 5.487 0 0 0 1.066-.085l.661-2.429c-.3.021-.639.042-.939.042" class="cls-2" data-name="Path 1654" transform="translate(543.268 -335.475)"/>
            <path id="Path_1655" d="M-513.139 336.188a5.878 5.878 0 0 0-2.135-2.12 5.722 5.722 0 0 0-2.158-.747v-2.8a2.068 2.068 0 0 0 1.275-1.936 2.12 2.12 0 0 0-2.118-2.129 2.134 2.134 0 0 0-2.135 2.129 2.043 2.043 0 0 0 1.247 1.936v2.8a6.162 6.162 0 0 0-1.878.589c-1.217-.925-5.21-3.959-7.546-5.731a2.3 2.3 0 0 0 .1-.622 2.358 2.358 0 0 0-2.358-2.358 2.357 2.357 0 0 0-2.357 2.358 2.358 2.358 0 0 0 2.358 2.358 2.336 2.336 0 0 0 1.21-.344l.493.374 6.773 4.879a5.685 5.685 0 0 0-.958 1.122 5.234 5.234 0 0 0-.871 2.823v.214a5.915 5.915 0 0 0 .37 2.04 5.364 5.364 0 0 0 .878 1.524l-2.251 2.253a1.8 1.8 0 0 0-.627-.114 1.81 1.81 0 0 0-1.287.534 1.809 1.809 0 0 0-.533 1.289 1.81 1.81 0 0 0 .534 1.289 1.81 1.81 0 0 0 1.288.534 1.812 1.812 0 0 0 1.289-.534 1.812 1.812 0 0 0 .533-1.289 1.822 1.822 0 0 0-.084-.546l2.324-2.324a5.942 5.942 0 0 0 1.032.565 6.031 6.031 0 0 0 2.416.508h.162a5.7 5.7 0 0 0 2.757-.7 5.7 5.7 0 0 0 2.161-2.034 5.338 5.338 0 0 0 .839-2.875v-.052a5.638 5.638 0 0 0-.743-2.866zm-2.839 4.875a2.955 2.955 0 0 1-2.175 1.132h-.135a2.935 2.935 0 0 1-1.374-.365 3.176 3.176 0 0 1-1.2-1.1 2.558 2.558 0 0 1-.5-1.492v-.162a3.062 3.062 0 0 1 .353-1.486 3.222 3.222 0 0 1 1.121-1.226 2.742 2.742 0 0 1 1.552-.468h.053a3.143 3.143 0 0 1 1.46.337 3.091 3.091 0 0 1 1.147 1.043 3.316 3.316 0 0 1 .514 1.466c.009.109.013.223.013.33a2.9 2.9 0 0 1-.823 1.987z" class="cls-2" data-name="Path 1655" transform="translate(585.722 -325.199)"/>
        </g>
        <path id="Path_1656" d="M-403.087 292.784a29.322 29.322 0 0 0-29.322 29.322 29.322 29.322 0 0 0 29.322 29.322 29.322 29.322 0 0 0 29.322-29.322 29.322 29.322 0 0 0-29.322-29.322zm-13.518 35.5a1.606 1.606 0 0 1-2 .639 1.618 1.618 0 0 1-1.007-1.894 4.526 4.526 0 0 1 .579-1.6 1.631 1.631 0 0 1 1.793-.71 1.683 1.683 0 0 1 1.257 1.631 4.478 4.478 0 0 1-.617 1.935zm1.954 3.1a1.536 1.536 0 0 1-1.171-1.782 12.974 12.974 0 0 1 1.185-3.26 1.41 1.41 0 0 1 1.267-.727 1.644 1.644 0 0 1 1.689 2.095 18.984 18.984 0 0 1-1.017 2.8 1.6 1.6 0 0 1-1.952.872zm3.641 2.384a1.583 1.583 0 0 1-.942-1.937 69.99 69.99 0 0 1 1.627-4.336 1.355 1.355 0 0 1 1.222-.853c1.259.008 2.093.9 1.847 1.886a27.412 27.412 0 0 1-1.689 4.611 1.628 1.628 0 0 1-2.064.627zm4.372 2.429a1.716 1.716 0 0 1-1.464-1.453 1.909 1.909 0 0 1 .158-.974c.439-1.206.9-2.4 1.334-3.613a2.289 2.289 0 0 1 1.07-1.189.146.146 0 0 1 .241-.042 2.5 2.5 0 0 1 1.419.352 1.458 1.458 0 0 1 .426 2.206c-.471 1.217-.929 2.44-1.419 3.649a1.712 1.712 0 0 1-1.764 1.067zm4.712.4a2.226 2.226 0 0 1-2.124-.871.49.49 0 0 1 0-.531c.4-.911.809-1.818 1.194-2.735.152-.361.287-.429.584-.12a11.919 11.919 0 0 1 1.317 1.489 1.477 1.477 0 0 1 .347.914 2.067 2.067 0 0 1-1.318 1.85zm14.365-6.12a1.458 1.458 0 0 1-1.827-.256q-4.667-4.044-9.359-8.057c-.541-.465-1.072-.942-1.628-1.39-.313-.252-.683-.745-1.081-.3s.1.777.406 1.049c1.327 1.192 2.671 2.368 4.01 3.546 1.751 1.541 3.514 3.067 5.252 4.622a1.7 1.7 0 0 1-.571 3.006 1.467 1.467 0 0 1-1.509-.361q-4.506-3.848-9.027-7.678a10.192 10.192 0 0 0-.845-.657c-.138-.094-.3-.317-.49-.115a.62.62 0 0 0-.136.6 1.589 1.589 0 0 0 .621.76q3.372 2.922 6.747 5.84a5.273 5.273 0 0 1 1.056 1.056 1.644 1.644 0 0 1-.236 2.093 1.449 1.449 0 0 1-1.938.329 38.717 38.717 0 0 1-4.445-3.674 8.338 8.338 0 0 0-1.135-2.244.653.653 0 0 0-.463-.257.069.069 0 0 1-.117-.029c-.065-.029-.134-.089-.193-.08a2.448 2.448 0 0 1-2.485-1.372c-.788-1.131-1.761-1.293-3.229-.634-.515.231-.749.189-1.055-.3a2.4 2.4 0 0 0-3.646-.565c-.144.117-.277.248-.418.374-.223-.127-.247-.357-.35-.533a2.16 2.16 0 0 0-3.911-.08c-.321.523-.529.482-.966.205q-2.322-1.47-4.683-2.876a.851.851 0 0 1-.374-1.3q2.725-5.22 5.444-10.442a.761.761 0 0 1 1.176-.363c3.364 1.726 2.658 1.305 5.767.374 1.253-.375 2.487-.812 3.736-1.2a7.7 7.7 0 0 1 1.253-.265c.307-.041.684-.026.823.284.159.355-.177.557-.432.721-1.722 1.106-3.463 2.183-5.077 3.446a2.345 2.345 0 0 0-1.133 1.72 3.278 3.278 0 0 0 3.961 3.236 67.138 67.138 0 0 0 6.51-2.341c.774-.3 1.554-.921 2.322-.8.738.121 1.258.953 1.864 1.483q5.8 5.082 11.589 10.17a2.553 2.553 0 0 1 .939 1.546 1.491 1.491 0 0 1-.716 1.705zm6.761-6.823q-2.394 1.744-4.735 3.559c-.412.321-.642.281-1.007-.055q-4.419-4.053-8.87-8.07c-1.585-1.44-3.182-2.867-4.744-4.33a.87.87 0 0 0-1.068-.19c-2.367.935-4.745 1.842-7.117 2.763a8.922 8.922 0 0 1-1.919.537 2.92 2.92 0 0 1-2.776-1.392 1.39 1.39 0 0 1-.157-.68 1.154 1.154 0 0 1 .3-.789 4.358 4.358 0 0 1 1.065-.941c1.78-1.07 3.374-2.4 5.033-3.632a5.721 5.721 0 0 1 1.906-.935q3.229-.9 6.44-1.866a1.087 1.087 0 0 1 .936.113c2.566 1.455 5.144 2.888 7.71 4.343a1.978 1.978 0 0 0 1.64.226c.681-.214 1.371-.4 2.039-.65.4-.146.561-.073.74.329 1.293 2.913 2.618 5.812 3.932 8.716.294.65.55 1.32.885 1.948a.648.648 0 0 1-.233.992z" class="cls-2" data-name="Path 1656" transform="translate(-166.86)"/>
        <g id="Group_291" data-name="Group 291" transform="translate(-696.584 330.689)">
            <path id="Path_1657" d="M-685.332 408.261v-3.18c0-1.471.434-2.5 2.024-2.5 1.432 0 1.9.879 1.9 2.271v.484h-.711v-.464c0-1.037-.177-1.688-1.175-1.688-1.086 0-1.274.721-1.274 1.787v3.406c0 1.185.287 1.778 1.274 1.778s1.175-.691 1.175-1.738v-.517h.711v.474c0 1.4-.4 2.39-1.9 2.39-1.619-.005-2.024-1.112-2.024-2.503z" class="cls-2" data-name="Path 1657" transform="translate(685.332 -402.583)"/>
            <path id="Path_1658" d="M-670.6 402.811h2.893v.583h-2.133v3h1.738v.553h-1.738v3.3h2.152v.563h-2.912z" class="cls-2" data-name="Path 1658" transform="translate(675.687 -402.732)"/>
            <path id="Path_1659" d="M-659.189 402.811h1.807c1.491 0 1.985.771 1.985 2.034 0 .908-.237 1.688-1.106 1.876l1.224 4.088h-.731l-1.175-3.93h-1.254v3.93h-.751zm1.768 3.515c.987 0 1.294-.493 1.294-1.481s-.256-1.472-1.274-1.472h-1.037v2.952z" class="cls-2" data-name="Path 1659" transform="translate(668.214 -402.732)"/>
            <path id="Path_1660" d="M-644.834 403.394h-1.511v-.583h3.732v.583h-1.471v7.415h-.75z" class="cls-2" data-name="Path 1660" transform="translate(659.804 -402.732)"/>
            <path id="Path_1661" d="M-632.931 402.811h.751v8h-.751z" class="cls-2" data-name="Path 1661" transform="translate(651.021 -402.732)"/>
            <path id="Path_1662" d="M-626.638 402.811h2.873v.563h-2.123v3.012h1.768v.553h-1.768v3.871h-.75z" class="cls-2" data-name="Path 1662" transform="translate(646.9 -402.732)"/>
            <path id="Path_1663" d="M-615.541 402.811h.75v8h-.75z" class="cls-2" data-name="Path 1663" transform="translate(639.635 -402.732)"/>
            <path id="Path_1664" d="M-609.277 402.811h2.893v.583h-2.133v3h1.738v.553h-1.738v3.3h2.153v.563h-2.913z" class="cls-2" data-name="Path 1664" transform="translate(635.533 -402.732)"/>
            <path id="Path_1665" d="M-597.864 402.811h1.738c1.659 0 2.172.938 2.172 2.35v3.179c0 1.491-.5 2.469-2.1 2.469h-1.807zm1.758 7.435c1.264 0 1.382-.859 1.382-2.025v-2.981c0-1.194-.217-1.846-1.412-1.846h-.978v6.853z" class="cls-2" data-name="Path 1665" transform="translate(628.06 -402.732)"/>
            <path id="Path_1666" d="M-577.127 402.811h1.916c1.432 0 1.9.859 1.9 2.123 0 1.135-.514 2.093-1.886 2.093h-1.175v3.782h-.751zm1.709 3.654c.967 0 1.363-.385 1.363-1.531 0-1.224-.3-1.56-1.353-1.56h-.968v3.091z" class="cls-2" data-name="Path 1666" transform="translate(614.482 -402.732)"/>
            <path id="Path_1667" d="M-564.054 402.811h.79l1.7 8h-.74l-.4-2.142h-1.906l-.4 2.142h-.731zm1.254 5.313l-.849-4.315-.849 4.315z" class="cls-2" data-name="Path 1667" transform="translate(607.027 -402.732)"/>
            <path id="Path_1668" d="M-550.84 402.811h1.807c1.491 0 1.985.771 1.985 2.034 0 .908-.237 1.688-1.106 1.876l1.224 4.088h-.73l-1.175-3.93h-1.254v3.93h-.75zm1.768 3.515c.987 0 1.293-.493 1.293-1.481s-.257-1.472-1.274-1.472h-1.037v2.952z" class="cls-2" data-name="Path 1668" transform="translate(597.27 -402.732)"/>
            <path id="Path_1669" d="M-536.486 403.394H-538v-.583h3.733v.583h-1.471v7.415h-.75z" class="cls-2" data-name="Path 1669" transform="translate(588.861 -402.732)"/>
            <path id="Path_1670" d="M-524.639 402.811h.543l2.547 6.211v-6.211h.652v8h-.533l-2.557-6.28v6.28h-.651z" class="cls-2" data-name="Path 1670" transform="translate(580.114 -402.732)"/>
            <path id="Path_1671" d="M-509.794 402.811h2.893v.583h-2.133v3h1.738v.553h-1.738v3.3h2.153v.563h-2.913z" class="cls-2" data-name="Path 1671" transform="translate(570.394 -402.732)"/>
            <path id="Path_1672" d="M-498.381 402.811h1.807c1.491 0 1.985.771 1.985 2.034 0 .908-.237 1.688-1.106 1.876l1.224 4.088h-.73l-1.175-3.93h-1.254v3.93h-.75zm1.767 3.515c.987 0 1.294-.493 1.294-1.481s-.257-1.472-1.274-1.472h-1.037v2.952z" class="cls-2" data-name="Path 1672" transform="translate(562.921 -402.732)"/>
        </g>
        <path id="Line_116" d="M0 0h129.982" class="cls-3" data-name="Line 116" transform="translate(-704.608 296.905)"/>
        <path id="Line_117" d="M0 0h129.982" class="cls-3" data-name="Line 117" transform="translate(-704.608 347.998)"/>
    </g>
</svg>
