<?xml version="1.0" encoding="UTF-8"?> <svg xmlns="http://www.w3.org/2000/svg" width="97.716" height="93.143" viewBox="0 0 97.716 93.143"><g id="Google_Partner-_White" data-name="Google Partner- White" transform="translate(0.5 0.501)"><path id="Path_3121" data-name="Path 3121" d="M99.264,96.9H6.977a2.142,2.142,0,0,1-2.143-2.141V6.9A2.142,2.142,0,0,1,6.977,4.756H99.264A2.142,2.142,0,0,1,101.407,6.9V94.758A2.142,2.142,0,0,1,99.264,96.9Z" transform="translate(-4.834 -4.757)" fill="none" stroke="#fff" stroke-width="1"></path><path id="Path_3124" data-name="Path 3124" d="M4.755,112.921v15.5c0,2.344.846,3.314,3.314,3.314H98.04c2.611,0,3.872,0,3.314-3.314v-15.5Z" transform="translate(-4.755 -39.593)" fill="none" stroke="#fff" stroke-width="1"></path><path id="Path_3125" data-name="Path 3125" d="M90.466,46.618a17.213,17.213,0,0,0-.333-2.994H76.491v5.657h7.653a6.563,6.563,0,0,1-2.757,4.426v3.686h4.736a14.341,14.341,0,0,0,4.343-10.774Z" transform="translate(-27.858 -17.275)" fill="#fff"></path><path id="Path_3126" data-name="Path 3126" d="M70.232,63.514a13.948,13.948,0,0,0,9.675-3.534l-4.736-3.686a8.8,8.8,0,0,1-13.112-4.637h-4.87v3.79a14.59,14.59,0,0,0,13.043,8.067Z" transform="translate(-21.642 -19.862)" fill="#fff"></path><path id="Path_3127" data-name="Path 3127" d="M61.32,47.211a8.784,8.784,0,0,1,0-5.568v-3.79H56.45A14.673,14.673,0,0,0,56.45,51l4.87-3.79Z" transform="translate(-20.903 -15.417)" fill="#fff"></path><path id="Path_3128" data-name="Path 3128" d="M70.232,31.777a7.9,7.9,0,0,1,5.584,2.189L80,29.77a14,14,0,0,0-9.768-3.816,14.59,14.59,0,0,0-13.043,8.067l4.87,3.79a8.709,8.709,0,0,1,8.173-6.034Z" transform="translate(-21.642 -11.585)" fill="#fff"></path><g id="Layer_3" data-name="Layer 3" transform="translate(15.42 51.951)"><g id="Group_1459" data-name="Group 1459"><g id="Group_1447" data-name="Group 1447"><path id="Path_3130" data-name="Path 3130" d="M29.419,88.291a3.531,3.531,0,0,1-1.309-1.309,3.741,3.741,0,0,1,0-3.683,3.56,3.56,0,0,1,3.112-1.784,3.8,3.8,0,0,1,1.439.271,2.9,2.9,0,0,1,1.11.765l-.591.592a2.147,2.147,0,0,0-.843-.626,2.807,2.807,0,0,0-1.105-.218,2.779,2.779,0,0,0-1.372.353,2.7,2.7,0,0,0-1.018,1,3.083,3.083,0,0,0,0,2.977,2.677,2.677,0,0,0,1.023,1,2.992,2.992,0,0,0,2.535.136,2.624,2.624,0,0,0,.809-.576,2.13,2.13,0,0,0,.407-.655,2.89,2.89,0,0,0,.195-.848H31.241v-.766h3.335a2.867,2.867,0,0,1,.049.5,3.867,3.867,0,0,1-.2,1.245,2.761,2.761,0,0,1-.649,1.062,3.308,3.308,0,0,1-2.549,1.037A3.546,3.546,0,0,1,29.419,88.291Z" transform="translate(-27.54 -81.43)" fill="#fff"></path><path id="Path_3131" data-name="Path 3131" d="M31.182,88.81a3.649,3.649,0,0,1-1.846-.486h0A3.628,3.628,0,0,1,28,86.984a3.826,3.826,0,0,1,0-3.769,3.641,3.641,0,0,1,3.186-1.826,3.906,3.906,0,0,1,1.471.277,2.992,2.992,0,0,1,1.142.788l.053.06-.715.715-.059-.073a2.063,2.063,0,0,0-.811-.6,2.728,2.728,0,0,0-1.072-.211,2.7,2.7,0,0,0-1.331.343,2.625,2.625,0,0,0-.986.967,3,3,0,0,0,0,2.891,2.62,2.62,0,0,0,.991.967,2.912,2.912,0,0,0,2.459.133,2.555,2.555,0,0,0,.783-.558,2.048,2.048,0,0,0,.39-.628,2.787,2.787,0,0,0,.179-.732H31.116v-.936h3.49l.013.07a2.978,2.978,0,0,1,.05.519,3.979,3.979,0,0,1-.208,1.272,2.863,2.863,0,0,1-.669,1.094A3.4,3.4,0,0,1,31.182,88.81Zm0-7.251A3.474,3.474,0,0,0,28.143,83.3a3.659,3.659,0,0,0,0,3.6,3.468,3.468,0,0,0,1.278,1.277h0a3.48,3.48,0,0,0,1.761.464,3.243,3.243,0,0,0,2.487-1.009A2.694,2.694,0,0,0,34.3,86.6a3.814,3.814,0,0,0,.2-1.218,2.706,2.706,0,0,0-.036-.42H31.286v.6h2.576l-.007.092a3.008,3.008,0,0,1-.2.873,2.225,2.225,0,0,1-.423.681,2.735,2.735,0,0,1-.836.6,3.081,3.081,0,0,1-2.612-.138,2.78,2.78,0,0,1-1.055-1.03,3.168,3.168,0,0,1,0-3.062,2.8,2.8,0,0,1,1.049-1.03,2.958,2.958,0,0,1,2.552-.14,2.263,2.263,0,0,1,.816.578l.469-.469a2.848,2.848,0,0,0-1.025-.684A3.734,3.734,0,0,0,31.182,81.559Z" transform="translate(-27.5 -81.39)" fill="#fff"></path></g><g id="Group_1448" data-name="Group 1448" transform="translate(7.808 1.997)"><path id="Path_3132" data-name="Path 3132" d="M40.374,89.365a2.428,2.428,0,0,1-.906-.95,2.878,2.878,0,0,1,0-2.656,2.437,2.437,0,0,1,.906-.95,2.628,2.628,0,0,1,2.618,0,2.442,2.442,0,0,1,.906.95,2.878,2.878,0,0,1,0,2.656,2.433,2.433,0,0,1-.906.95,2.628,2.628,0,0,1-2.618,0Zm2.157-.625a1.683,1.683,0,0,0,.63-.654,2.22,2.22,0,0,0,0-2,1.687,1.687,0,0,0-.63-.654,1.662,1.662,0,0,0-.848-.227,1.68,1.68,0,0,0-1.488.881,2.214,2.214,0,0,0,0,2,1.666,1.666,0,0,0,.635.654,1.688,1.688,0,0,0,.854.228A1.663,1.663,0,0,0,42.531,88.74Z" transform="translate(-39.058 -84.375)" fill="#fff"></path><path id="Path_3133" data-name="Path 3133" d="M41.643,89.758A2.588,2.588,0,0,1,40.29,89.4a2.536,2.536,0,0,1-.938-.982,2.965,2.965,0,0,1,0-2.738,2.546,2.546,0,0,1,.938-.982,2.715,2.715,0,0,1,2.7,0,2.546,2.546,0,0,1,.938.982,2.964,2.964,0,0,1,0,2.738,2.536,2.536,0,0,1-.938.982A2.587,2.587,0,0,1,41.643,89.758Zm0-5.254a2.426,2.426,0,0,0-1.266.337,2.369,2.369,0,0,0-.875.918,2.792,2.792,0,0,0,0,2.575,2.36,2.36,0,0,0,.875.918h0a2.543,2.543,0,0,0,2.53,0,2.357,2.357,0,0,0,.876-.918,2.792,2.792,0,0,0,0-2.575,2.366,2.366,0,0,0-.876-.918A2.418,2.418,0,0,0,41.643,84.5Zm0,4.508a1.767,1.767,0,0,1-1.563-.926,2.3,2.3,0,0,1,0-2.079,1.763,1.763,0,0,1,.667-.687,1.765,1.765,0,0,1,2.448.687,2.306,2.306,0,0,1,0,2.079,1.79,1.79,0,0,1-.662.687h0A1.761,1.761,0,0,1,41.643,89.012Zm0-3.761a1.6,1.6,0,0,0-1.414.838,2.131,2.131,0,0,0,0,1.914,1.6,1.6,0,0,0,.6.622,1.624,1.624,0,0,0,1.617,0h0a1.609,1.609,0,0,0,.6-.622,2.137,2.137,0,0,0,0-1.914,1.6,1.6,0,0,0-.6-.622A1.58,1.58,0,0,0,41.643,85.252Z" transform="translate(-39.018 -84.335)" fill="#fff"></path></g><g id="Group_1449" data-name="Group 1449" transform="translate(13.576 1.997)"><path id="Path_3134" data-name="Path 3134" d="M48.882,89.365a2.438,2.438,0,0,1-.906-.95,2.878,2.878,0,0,1,0-2.656,2.447,2.447,0,0,1,.906-.95,2.628,2.628,0,0,1,2.618,0,2.444,2.444,0,0,1,.907.95,2.878,2.878,0,0,1,0,2.656,2.435,2.435,0,0,1-.907.95,2.628,2.628,0,0,1-2.618,0Zm2.157-.625a1.684,1.684,0,0,0,.63-.654,2.22,2.22,0,0,0,0-2,1.689,1.689,0,0,0-.63-.654,1.66,1.66,0,0,0-.848-.227,1.682,1.682,0,0,0-1.488.881,2.22,2.22,0,0,0,0,2,1.7,1.7,0,0,0,2.336.654Z" transform="translate(-47.566 -84.375)" fill="#fff"></path><path id="Path_3135" data-name="Path 3135" d="M50.151,89.758A2.59,2.59,0,0,1,48.8,89.4a2.535,2.535,0,0,1-.937-.982,2.959,2.959,0,0,1,0-2.738A2.544,2.544,0,0,1,48.8,84.7a2.716,2.716,0,0,1,2.7,0,2.549,2.549,0,0,1,.937.982,2.959,2.959,0,0,1,0,2.738,2.539,2.539,0,0,1-.937.982A2.588,2.588,0,0,1,50.151,89.758Zm0-5.254a2.422,2.422,0,0,0-1.265.337,2.366,2.366,0,0,0-.876.918,2.792,2.792,0,0,0,0,2.575,2.356,2.356,0,0,0,.876.918h0a2.543,2.543,0,0,0,2.53,0,2.366,2.366,0,0,0,.876-.918,2.792,2.792,0,0,0,0-2.575,2.376,2.376,0,0,0-.876-.918A2.422,2.422,0,0,0,50.151,84.5Zm0,4.508a1.767,1.767,0,0,1-1.562-.926,2.3,2.3,0,0,1,0-2.079,1.754,1.754,0,0,1,.667-.687,1.794,1.794,0,0,1,1.786,0,1.774,1.774,0,0,1,.662.687,2.3,2.3,0,0,1,0,2.079,1.785,1.785,0,0,1-.662.687h0A1.757,1.757,0,0,1,50.151,89.012Zm0-3.761a1.6,1.6,0,0,0-1.414.838,2.137,2.137,0,0,0,0,1.914,1.6,1.6,0,0,0,.6.622,1.622,1.622,0,0,0,1.616,0h0a1.6,1.6,0,0,0,.6-.622,2.131,2.131,0,0,0,0-1.914,1.6,1.6,0,0,0-.6-.622A1.577,1.577,0,0,0,50.151,85.252Z" transform="translate(-47.526 -84.335)" fill="#fff"></path></g><g id="Group_1450" data-name="Group 1450" transform="translate(19.344 1.997)"><path id="Path_3136" data-name="Path 3136" d="M57.153,91.4a1.99,1.99,0,0,1-.761-.979l.747-.32a1.481,1.481,0,0,0,.548.694,1.551,1.551,0,0,0,.906.266,1.6,1.6,0,0,0,1.187-.428,1.664,1.664,0,0,0,.422-1.22v-.553h-.039a1.813,1.813,0,0,1-.683.616,2.081,2.081,0,0,1-1,.237,2.149,2.149,0,0,1-1.168-.333,2.351,2.351,0,0,1-.839-.931,3.133,3.133,0,0,1,0-2.72,2.343,2.343,0,0,1,.839-.936,2.143,2.143,0,0,1,1.168-.334,2.082,2.082,0,0,1,1,.238,1.78,1.78,0,0,1,.683.624H60.2v-.708h.785v4.75a2.389,2.389,0,0,1-.659,1.818,2.732,2.732,0,0,1-3.175.218Zm2.249-2.66a1.605,1.605,0,0,0,.582-.65,2.161,2.161,0,0,0,.218-1,2.187,2.187,0,0,0-.218-1.014,1.573,1.573,0,0,0-.582-.645,1.585,1.585,0,0,0-1.624.005,1.6,1.6,0,0,0-.586.649,2.172,2.172,0,0,0-.218,1,2.2,2.2,0,0,0,.218,1.009,1.527,1.527,0,0,0,1.4.871A1.5,1.5,0,0,0,59.4,88.741Z" transform="translate(-56.074 -84.375)" fill="#fff"></path><path id="Path_3137" data-name="Path 3137" d="M58.553,91.853a2.5,2.5,0,0,1-1.489-.423,2.079,2.079,0,0,1-.792-1.021l-.025-.074.9-.386.032.082a1.406,1.406,0,0,0,.517.654,1.473,1.473,0,0,0,.858.252,1.519,1.519,0,0,0,1.127-.4,1.59,1.59,0,0,0,.4-1.161v-.345a1.99,1.99,0,0,1-.6.483,2.184,2.184,0,0,1-1.043.247,2.237,2.237,0,0,1-1.213-.346,2.443,2.443,0,0,1-.869-.964,3.221,3.221,0,0,1,0-2.8,2.435,2.435,0,0,1,.87-.968,2.228,2.228,0,0,1,1.213-.347,2.18,2.18,0,0,1,1.043.247,1.935,1.935,0,0,1,.6.489V84.49h.955v4.835a2.482,2.482,0,0,1-.685,1.88A2.51,2.51,0,0,1,58.553,91.853Zm-2.094-1.425a1.947,1.947,0,0,0,.7.864,2.289,2.289,0,0,0,3.7-1.967V84.659h-.616v.708h-.17l-.025-.039a1.707,1.707,0,0,0-.651-.6,2.012,2.012,0,0,0-.963-.228,2.065,2.065,0,0,0-1.123.321,2.267,2.267,0,0,0-.809.9,3.048,3.048,0,0,0,0,2.641,2.28,2.28,0,0,0,.809.9,2.072,2.072,0,0,0,1.123.32,2,2,0,0,0,.963-.227,1.749,1.749,0,0,0,.652-.586l.025-.039h.169v.637a1.753,1.753,0,0,1-.446,1.28,1.68,1.68,0,0,1-1.247.453,1.634,1.634,0,0,1-.955-.282,1.567,1.567,0,0,1-.544-.651Zm2.094-1.416a1.609,1.609,0,0,1-1.477-.917,2.291,2.291,0,0,1-.228-1.048A2.261,2.261,0,0,1,57.076,86a1.69,1.69,0,0,1,.618-.683,1.671,1.671,0,0,1,1.712-.005,1.678,1.678,0,0,1,.614.678,2.3,2.3,0,0,1,.227,1.054,2.268,2.268,0,0,1-.227,1.043,1.71,1.71,0,0,1-.613.683A1.6,1.6,0,0,1,58.553,89.012Zm0-3.761a1.45,1.45,0,0,0-.77.214,1.528,1.528,0,0,0-.556.616,2.1,2.1,0,0,0-.209.965,2.135,2.135,0,0,0,.209.971,1.444,1.444,0,0,0,1.326.824,1.422,1.422,0,0,0,.764-.214,1.535,1.535,0,0,0,.551-.617,2.087,2.087,0,0,0,.209-.965,2.115,2.115,0,0,0-.209-.976,1.5,1.5,0,0,0-.55-.611A1.448,1.448,0,0,0,58.553,85.252Z" transform="translate(-56.034 -84.335)" fill="#fff"></path></g><g id="Group_1451" data-name="Group 1451" transform="translate(25.384 0.155)"><path id="Path_3138" data-name="Path 3138" d="M65.068,81.743h.824v6.941h-.824Z" transform="translate(-64.983 -81.658)" fill="#fff"></path><path id="Path_3139" data-name="Path 3139" d="M65.936,88.728h-.993v-7.11h.993Zm-.824-.169h.654V81.787h-.654Z" transform="translate(-64.943 -81.618)" fill="#fff"></path></g><g id="Group_1452" data-name="Group 1452" transform="translate(27.168 1.997)"><path id="Path_3140" data-name="Path 3140" d="M68.891,89.375a2.353,2.353,0,0,1-.877-.936A2.828,2.828,0,0,1,67.7,87.1a2.95,2.95,0,0,1,.3-1.319,2.394,2.394,0,0,1,.839-.959,2.237,2.237,0,0,1,1.26-.359,2.379,2.379,0,0,1,1.26.325,2.156,2.156,0,0,1,.819.9,2.889,2.889,0,0,1,.286,1.308.946.946,0,0,1-.029.252H68.523a1.959,1.959,0,0,0,.271.95,1.575,1.575,0,0,0,.616.582,1.666,1.666,0,0,0,.78.194,1.608,1.608,0,0,0,1.464-.891l.7.339a2.477,2.477,0,0,1-.867.95,2.615,2.615,0,0,1-2.593.01Zm2.695-2.811a1.605,1.605,0,0,0-.175-.621,1.325,1.325,0,0,0-.489-.523,1.532,1.532,0,0,0-.839-.213,1.4,1.4,0,0,0-.984.372,1.8,1.8,0,0,0-.528.984Z" transform="translate(-67.614 -84.375)" fill="#fff"></path><path id="Path_3141" data-name="Path 3141" d="M70.121,89.758a2.505,2.505,0,0,1-1.314-.351h0a2.451,2.451,0,0,1-.908-.968,2.928,2.928,0,0,1-.325-1.382,3.053,3.053,0,0,1,.3-1.356,2.484,2.484,0,0,1,.868-.993,2.326,2.326,0,0,1,1.307-.373,2.467,2.467,0,0,1,1.3.338,2.25,2.25,0,0,1,.851.931A2.988,2.988,0,0,1,72.5,86.95a1.031,1.031,0,0,1-.033.275l-.017.062H68.573a1.834,1.834,0,0,0,.252.82,1.5,1.5,0,0,0,.583.552,1.593,1.593,0,0,0,.742.184,1.518,1.518,0,0,0,1.39-.849l.039-.068.848.412-.041.078a2.585,2.585,0,0,1-.9.982A2.507,2.507,0,0,1,70.121,89.758Zm-1.226-.5a2.531,2.531,0,0,0,2.5-.009,2.4,2.4,0,0,0,.8-.841l-.548-.266a1.678,1.678,0,0,1-1.5.866,1.766,1.766,0,0,1-.82-.2,1.675,1.675,0,0,1-.649-.613,2.05,2.05,0,0,1-.284-.99l0-.089h3.928a1.028,1.028,0,0,0,.013-.167,2.823,2.823,0,0,0-.277-1.271,2.085,2.085,0,0,0-.787-.862,2.306,2.306,0,0,0-1.216-.313,2.158,2.158,0,0,0-1.214.345,2.323,2.323,0,0,0-.809.926,2.875,2.875,0,0,0-.287,1.281,2.753,2.753,0,0,0,.305,1.3,2.282,2.282,0,0,0,.846.9Zm2.742-2.654H68.428l.02-.1A1.886,1.886,0,0,1,69,85.477a1.483,1.483,0,0,1,1.041-.4,1.621,1.621,0,0,1,.885.226,1.4,1.4,0,0,1,.519.557,1.7,1.7,0,0,1,.184.653Zm-3-.169h2.815a1.562,1.562,0,0,0-.157-.5,1.245,1.245,0,0,0-.458-.489,1.462,1.462,0,0,0-.794-.2,1.318,1.318,0,0,0-.926.35A1.685,1.685,0,0,0,68.638,86.439Z" transform="translate(-67.574 -84.335)" fill="#fff"></path></g><g id="Group_1453" data-name="Group 1453" transform="translate(34.912 0.155)"><path id="Path_3142" data-name="Path 3142" d="M79.123,81.743h2.336A2.267,2.267,0,0,1,82.536,82a2.052,2.052,0,0,1,.79.732,2.05,2.05,0,0,1,0,2.123,2.055,2.055,0,0,1-.79.731,2.259,2.259,0,0,1-1.077.262H79.937v2.83h-.814Zm2.357,3.325a1.26,1.26,0,0,0,.683-.184,1.324,1.324,0,0,0,.46-.475,1.215,1.215,0,0,0,0-1.222,1.325,1.325,0,0,0-.46-.475,1.266,1.266,0,0,0-.683-.184H79.937v2.54Z" transform="translate(-79.038 -81.658)" fill="#fff"></path><path id="Path_3143" data-name="Path 3143" d="M79.982,88.728H79v-7.11h2.421a2.362,2.362,0,0,1,1.117.272,2.141,2.141,0,0,1,.822.762,2.134,2.134,0,0,1,0,2.213,2.145,2.145,0,0,1-.822.761,2.355,2.355,0,0,1-1.117.272H79.982Zm-.814-.169h.645v-2.83h1.607a2.194,2.194,0,0,0,1.037-.252,1.993,1.993,0,0,0,.758-.7,1.969,1.969,0,0,0,0-2.033,1.993,1.993,0,0,0-.758-.7,2.2,2.2,0,0,0-1.037-.251H79.167Zm2.272-3.447H79.812V82.4h1.627a1.363,1.363,0,0,1,.728.2,1.425,1.425,0,0,1,.489.506,1.3,1.3,0,0,1,0,1.3,1.411,1.411,0,0,1-.489.505A1.351,1.351,0,0,1,81.439,85.112Zm-1.458-.169h1.458a1.183,1.183,0,0,0,.638-.171,1.249,1.249,0,0,0,.432-.445,1.132,1.132,0,0,0,0-1.138,1.264,1.264,0,0,0-.432-.446,1.192,1.192,0,0,0-.638-.171H79.982Z" transform="translate(-78.998 -81.618)" fill="#fff"></path></g><g id="Group_1454" data-name="Group 1454" transform="translate(40.177 1.997)"><path id="Path_3144" data-name="Path 3144" d="M87.78,89.5a1.6,1.6,0,0,1-.66-.587,1.572,1.572,0,0,1-.232-.848,1.443,1.443,0,0,1,.591-1.226,2.426,2.426,0,0,1,1.493-.441,3.387,3.387,0,0,1,.829.1,2.158,2.158,0,0,1,.586.223v-.3A1.117,1.117,0,0,0,90,85.531a1.446,1.446,0,0,0-.98-.334,1.648,1.648,0,0,0-.766.18,1.392,1.392,0,0,0-.552.5l-.62-.466a1.985,1.985,0,0,1,.8-.7,2.509,2.509,0,0,1,1.13-.252,2.258,2.258,0,0,1,1.584.528,1.857,1.857,0,0,1,.577,1.439v3.131h-.785v-.707h-.039a1.775,1.775,0,0,1-.639.611,1.858,1.858,0,0,1-.96.252A2.143,2.143,0,0,1,87.78,89.5Zm1.823-.727a1.621,1.621,0,0,0,.571-.572,1.51,1.51,0,0,0,.214-.785,2.068,2.068,0,0,0-.572-.252,2.609,2.609,0,0,0-.718-.1,1.579,1.579,0,0,0-1.022.281.893.893,0,0,0-.344.727.808.808,0,0,0,.31.659,1.205,1.205,0,0,0,.785.252A1.494,1.494,0,0,0,89.6,88.774Z" transform="translate(-86.804 -84.375)" fill="#fff"></path><path id="Path_3145" data-name="Path 3145" d="M88.71,89.758a2.224,2.224,0,0,1-1.007-.222h0a1.687,1.687,0,0,1-.694-.617,1.666,1.666,0,0,1-.245-.894,1.531,1.531,0,0,1,.625-1.294,2.526,2.526,0,0,1,1.544-.458,3.466,3.466,0,0,1,.849.1,2.671,2.671,0,0,1,.481.163v-.159a1.022,1.022,0,0,0-.359-.823,1.363,1.363,0,0,0-.923-.314,1.566,1.566,0,0,0-.727.17,1.318,1.318,0,0,0-.52.469l-.049.077-.757-.568.043-.066A2.075,2.075,0,0,1,87.8,84.6a2.608,2.608,0,0,1,1.167-.261,2.347,2.347,0,0,1,1.641.55,1.944,1.944,0,0,1,.6,1.5V89.6h-.955v-.577a1.973,1.973,0,0,1-.551.468A1.946,1.946,0,0,1,88.71,89.758Zm.223-3.315a2.355,2.355,0,0,0-1.442.424,1.349,1.349,0,0,0-.557,1.158,1.491,1.491,0,0,0,.22.8,1.511,1.511,0,0,0,.625.555h0a2.069,2.069,0,0,0,.931.2,1.78,1.78,0,0,0,.917-.24,1.7,1.7,0,0,0,.61-.581l.024-.041h.172v.707h.616V86.387a1.781,1.781,0,0,0-.55-1.377,2.185,2.185,0,0,0-1.527-.506,2.438,2.438,0,0,0-1.092.243,1.919,1.919,0,0,0-.721.6l.485.363a1.49,1.49,0,0,1,.534-.454,1.741,1.741,0,0,1,.8-.188,1.536,1.536,0,0,1,1.035.355,1.2,1.2,0,0,1,.417.952v.453L90.3,86.75a2.085,2.085,0,0,0-.563-.213A3.317,3.317,0,0,0,88.933,86.443Zm-.146,2.588a1.291,1.291,0,0,1-.839-.272.89.89,0,0,1-.341-.724.978.978,0,0,1,.376-.792,1.669,1.669,0,0,1,1.075-.3,2.708,2.708,0,0,1,.741.1,2.153,2.153,0,0,1,.6.263l.038.025v.045a1.6,1.6,0,0,1-.225.828,1.718,1.718,0,0,1-.6.6h0A1.582,1.582,0,0,1,88.787,89.032Zm.271-1.919a1.512,1.512,0,0,0-.968.262.808.808,0,0,0-.313.662.723.723,0,0,0,.279.593,1.132,1.132,0,0,0,.731.233,1.416,1.416,0,0,0,.733-.2,1.551,1.551,0,0,0,.542-.542,1.438,1.438,0,0,0,.2-.7,2.027,2.027,0,0,0-.51-.217A2.556,2.556,0,0,0,89.058,87.112Z" transform="translate(-86.764 -84.335)" fill="#fff"></path></g><g id="Group_1455" data-name="Group 1455" transform="translate(45.469 0.756)"><path id="Path_3146" data-name="Path 3146" d="M94.7,84.1h.786v.786h.039a1.342,1.342,0,0,1,.591-.679,1.786,1.786,0,0,1,.912-.243A1.835,1.835,0,0,1,97.38,84v.843a2.034,2.034,0,0,0-.445-.039,1.343,1.343,0,0,0-1.023.416,1.521,1.521,0,0,0-.393,1.086v2.744H94.7Zm5.017,4.922a1.261,1.261,0,0,1-.432-.266,1.238,1.238,0,0,1-.291-.435,1.658,1.658,0,0,1-.1-.6V84.772H98.03v-.747h.863v-1.4h.824v1.4h1.2v.747h-1.2v2.754a.991.991,0,0,0,.155.614.656.656,0,0,0,.533.218,1.006,1.006,0,0,0,.543-.165V89a1.243,1.243,0,0,1-.3.1,2.045,2.045,0,0,1-.382.029A1.541,1.541,0,0,1,99.712,89.026Z" transform="translate(-94.61 -82.545)" fill="#fff"></path><path id="Path_3147" data-name="Path 3147" d="M100.229,89.169a1.654,1.654,0,0,1-.588-.1,1.374,1.374,0,0,1-.46-.285,1.322,1.322,0,0,1-.31-.464,1.731,1.731,0,0,1-.1-.633V84.817h-.863V83.9h.863V82.5h.993v1.4h1.2v.917h-1.2v2.67a.92.92,0,0,0,.137.562.574.574,0,0,0,.466.186.928.928,0,0,0,.5-.152l.129-.082v1.012l-.049.023a1.365,1.365,0,0,1-.316.1A2.116,2.116,0,0,1,100.229,89.169Zm-2.154-4.522h.863v3.036a1.582,1.582,0,0,0,.09.571,1.147,1.147,0,0,0,.271.4,1.193,1.193,0,0,0,.4.247,1.457,1.457,0,0,0,.527.094,1.955,1.955,0,0,0,.366-.028,1.152,1.152,0,0,0,.228-.069v-.6a1.068,1.068,0,0,1-.458.106.74.74,0,0,1-.6-.249,1.06,1.06,0,0,1-.175-.668V84.647h1.2V84.07h-1.2v-1.4h-.654v1.4h-.863Zm-2.511,4.445H94.57V83.978h.955v.595a1.45,1.45,0,0,1,.5-.476,1.873,1.873,0,0,1,.954-.254,2.04,2.04,0,0,1,.375.03l.068.014v1.02l-.1-.024a1.938,1.938,0,0,0-.426-.037,1.25,1.25,0,0,0-.961.39,1.448,1.448,0,0,0-.369,1.028Zm-.824-.169h.655V86.263a1.61,1.61,0,0,1,.416-1.144,1.431,1.431,0,0,1,1.085-.443,2.689,2.689,0,0,1,.361.021v-.67a2.036,2.036,0,0,0-.273-.016,1.71,1.71,0,0,0-.869.231,1.251,1.251,0,0,0-.555.637l-.021.053h-.181v-.786H94.74Z" transform="translate(-94.57 -82.505)" fill="#fff"></path></g><g id="Group_1456" data-name="Group 1456" transform="translate(52.634 1.997)"><path id="Path_3148" data-name="Path 3148" d="M105.263,84.615h.786v.728h.039a1.659,1.659,0,0,1,.649-.626,1.875,1.875,0,0,1,.95-.257,1.744,1.744,0,0,1,1.362.519,2.02,2.02,0,0,1,.47,1.411v3.169h-.824V86.515a1.316,1.316,0,0,0-.329-1,1.263,1.263,0,0,0-.9-.31,1.2,1.2,0,0,0-.713.222,1.49,1.49,0,0,0-.489.586,1.732,1.732,0,0,0-.174.761v2.782h-.824Z" transform="translate(-105.178 -84.375)" fill="#fff"></path><path id="Path_3149" data-name="Path 3149" d="M109.564,89.6h-.994V86.475a1.247,1.247,0,0,0-.3-.937,1.19,1.19,0,0,0-.843-.286,1.124,1.124,0,0,0-.664.207,1.418,1.418,0,0,0-.462.554,1.667,1.667,0,0,0-.166.725V89.6h-.994V84.49h.955v.588a1.9,1.9,0,0,1,.561-.475,1.972,1.972,0,0,1,.992-.268,1.83,1.83,0,0,1,1.424.546,2.109,2.109,0,0,1,.493,1.468Zm-.824-.169h.655V86.349A1.949,1.949,0,0,0,108.945,85a1.669,1.669,0,0,0-1.3-.491,1.8,1.8,0,0,0-.908.245,1.592,1.592,0,0,0-.618.593l-.024.044h-.174v-.728h-.616v4.775h.655v-2.7a1.819,1.819,0,0,1,.183-.8,1.588,1.588,0,0,1,.517-.619,1.294,1.294,0,0,1,.761-.238,1.351,1.351,0,0,1,.96.333,1.4,1.4,0,0,1,.356,1.06Z" transform="translate(-105.138 -84.335)" fill="#fff"></path></g><g id="Group_1457" data-name="Group 1457" transform="translate(57.81 1.997)"><path id="Path_3150" data-name="Path 3150" d="M114.09,89.375a2.357,2.357,0,0,1-.877-.936A2.836,2.836,0,0,1,112.9,87.1a2.95,2.95,0,0,1,.3-1.319,2.387,2.387,0,0,1,.838-.959,2.239,2.239,0,0,1,1.261-.359,2.375,2.375,0,0,1,1.26.325,2.158,2.158,0,0,1,.82.9,2.9,2.9,0,0,1,.286,1.308.977.977,0,0,1-.029.252h-3.907a1.952,1.952,0,0,0,.272.95,1.574,1.574,0,0,0,.616.582,1.664,1.664,0,0,0,.78.194,1.607,1.607,0,0,0,1.464-.891l.7.339a2.485,2.485,0,0,1-.868.95,2.615,2.615,0,0,1-2.593.01Zm2.7-2.811a1.628,1.628,0,0,0-.175-.621,1.322,1.322,0,0,0-.489-.523,1.529,1.529,0,0,0-.839-.213,1.394,1.394,0,0,0-.984.372,1.8,1.8,0,0,0-.528.984Z" transform="translate(-112.813 -84.375)" fill="#fff"></path><path id="Path_3151" data-name="Path 3151" d="M115.32,89.758a2.5,2.5,0,0,1-1.313-.351h0a2.442,2.442,0,0,1-.908-.968,2.933,2.933,0,0,1-.325-1.382,3.042,3.042,0,0,1,.305-1.356,2.475,2.475,0,0,1,.867-.993,2.331,2.331,0,0,1,1.308-.373,2.463,2.463,0,0,1,1.3.338,2.241,2.241,0,0,1,.851.931,2.988,2.988,0,0,1,.3,1.346,1.066,1.066,0,0,1-.032.274l-.017.062h-3.881a1.811,1.811,0,0,0,.253.82,1.5,1.5,0,0,0,.582.552,1.591,1.591,0,0,0,.741.184,1.517,1.517,0,0,0,1.39-.849l.04-.068.848.412-.041.078a2.591,2.591,0,0,1-.9.982A2.509,2.509,0,0,1,115.32,89.758Zm-1.226-.5a2.531,2.531,0,0,0,2.5-.009,2.421,2.421,0,0,0,.8-.841l-.548-.266a1.677,1.677,0,0,1-1.5.866,1.76,1.76,0,0,1-.819-.2,1.675,1.675,0,0,1-.649-.613,2.055,2.055,0,0,1-.284-.99l0-.089h3.928a.963.963,0,0,0,.013-.167,2.829,2.829,0,0,0-.277-1.271,2.085,2.085,0,0,0-.788-.862,2.3,2.3,0,0,0-1.216-.313,2.156,2.156,0,0,0-1.214.345,2.31,2.31,0,0,0-.809.925,2.881,2.881,0,0,0-.287,1.282,2.757,2.757,0,0,0,.306,1.3,2.282,2.282,0,0,0,.846.9Zm2.742-2.654h-3.209l.021-.1a1.884,1.884,0,0,1,.554-1.028,1.482,1.482,0,0,1,1.041-.4,1.62,1.62,0,0,1,.885.226,1.405,1.405,0,0,1,.519.557,1.7,1.7,0,0,1,.184.653Zm-3-.169h2.815a1.579,1.579,0,0,0-.157-.5,1.242,1.242,0,0,0-.459-.489,1.46,1.46,0,0,0-.793-.2,1.318,1.318,0,0,0-.926.35A1.689,1.689,0,0,0,113.837,86.439Z" transform="translate(-112.773 -84.335)" fill="#fff"></path></g><g id="Group_1458" data-name="Group 1458" transform="translate(63.519 1.997)"><path id="Path_3152" data-name="Path 3152" d="M121.32,84.615h.786v.8h.039a1.356,1.356,0,0,1,.562-.679,1.58,1.58,0,0,1,.872-.271,1.453,1.453,0,0,1,.582.106v.883a1.549,1.549,0,0,0-.7-.156,1.15,1.15,0,0,0-.658.2,1.463,1.463,0,0,0-.48.55,1.58,1.58,0,0,0-.18.742v2.769h-.824Z" transform="translate(-121.235 -84.375)" fill="#fff"></path><path id="Path_3153" data-name="Path 3153" d="M122.189,89.6H121.2V84.49h.955v.593a1.553,1.553,0,0,1,.47-.462,1.671,1.671,0,0,1,.919-.285,1.538,1.538,0,0,1,.616.114l.051.022v1.075l-.123-.061a1.473,1.473,0,0,0-.661-.147,1.066,1.066,0,0,0-.611.19,1.378,1.378,0,0,0-.452.518,1.5,1.5,0,0,0-.17.7Zm-.824-.169h.655V86.749a1.672,1.672,0,0,1,.189-.782,1.562,1.562,0,0,1,.507-.58,1.239,1.239,0,0,1,.706-.219,1.679,1.679,0,0,1,.614.11v-.7a1.43,1.43,0,0,0-.5-.079,1.5,1.5,0,0,0-.826.258,1.278,1.278,0,0,0-.529.636l-.02.056h-.183v-.8h-.616Z" transform="translate(-121.195 -84.335)" fill="#fff"></path></g></g><g id="Group_1460" data-name="Group 1460" transform="translate(8.358 27.725)"><path id="Path_3154" data-name="Path 3154" d="M39.828,122.286h1.933a1.937,1.937,0,0,1,.908.218,1.7,1.7,0,0,1,.662.609,1.7,1.7,0,0,1,0,1.761,1.7,1.7,0,0,1-.662.609,1.936,1.936,0,0,1-.908.218H40.7v2.168h-.873Zm1.949,2.588a.942.942,0,0,0,.5-.128.872.872,0,0,0,.319-1.174.836.836,0,0,0-.319-.327.96.96,0,0,0-.5-.125H40.7v1.754Z" transform="translate(-39.828 -122.286)" fill="#fff"></path><path id="Path_3155" data-name="Path 3155" d="M46.44,122.286H48.4a1.93,1.93,0,0,1,.913.218,1.646,1.646,0,0,1,.889,1.489,1.52,1.52,0,0,1-.363,1,1.752,1.752,0,0,1-.908.585l-.008.039,1.529,2.206v.047H49.442l-1.474-2.183h-.655v2.183H46.44Zm1.942,2.588a.944.944,0,0,0,.662-.249.827.827,0,0,0,.273-.639.871.871,0,0,0-.11-.421.871.871,0,0,0-.795-.46h-1.1v1.769Z" transform="translate(-41.957 -122.286)" fill="#fff"></path><path id="Path_3156" data-name="Path 3156" d="M53.248,122.286h3.391v.835H54.121v1.544H56.39v.826H54.121v1.544h2.518v.835H53.248Z" transform="translate(-44.15 -122.286)" fill="#fff"></path><path id="Path_3157" data-name="Path 3157" d="M59.619,122.286H60.8l1.606,4.234h.047l1.606-4.234h1.185v5.583h-.865v-3.127l.047-1.005h-.047l-1.6,4.132h-.7l-1.6-4.132h-.047l.047,1.005v3.127h-.866Z" transform="translate(-46.202 -122.286)" fill="#fff"></path><path id="Path_3158" data-name="Path 3158" d="M69.578,122.286h.873v5.583h-.873Z" transform="translate(-49.409 -122.286)" fill="#fff"></path><path id="Path_3159" data-name="Path 3159" d="M72.511,122.286H75.9v.835H73.384v1.544h2.268v.826H73.384v1.544H75.9v.835H72.511Z" transform="translate(-50.354 -122.286)" fill="#fff"></path><path id="Path_3160" data-name="Path 3160" d="M78.881,122.286h1.965a1.928,1.928,0,0,1,.913.218,1.644,1.644,0,0,1,.888,1.489,1.522,1.522,0,0,1-.361,1,1.762,1.762,0,0,1-.908.585l-.008.039,1.528,2.206v.047H81.882l-1.472-2.183h-.656v2.183h-.873Zm1.942,2.588a.942.942,0,0,0,.662-.249.822.822,0,0,0,.273-.639.87.87,0,0,0-.109-.421.873.873,0,0,0-.8-.46h-1.1v1.769Z" transform="translate(-52.405 -122.286)" fill="#fff"></path><path id="Path_3161" data-name="Path 3161" d="M87.751,127.117q.249-.249.983-.986t.974-1a3.192,3.192,0,0,0,.448-.569,1.064,1.064,0,0,0,.121-.523.713.713,0,0,0-.235-.53.866.866,0,0,0-.631-.226.838.838,0,0,0-.6.214,1,1,0,0,0-.3.5l-.779-.32a1.582,1.582,0,0,1,.292-.553,1.736,1.736,0,0,1,.573-.46,1.77,1.77,0,0,1,.826-.186,1.91,1.91,0,0,1,.9.206,1.518,1.518,0,0,1,.609.562,1.489,1.489,0,0,1,.214.783,1.779,1.779,0,0,1-.239.885,3.591,3.591,0,0,1-.6.791q-.157.148-.788.78l-.639.639.016.031h2.323v.78h-3.47Z" transform="translate(-55.257 -122.346)" fill="#fff"></path><path id="Path_3162" data-name="Path 3162" d="M94.832,127.682a2.37,2.37,0,0,1-.768-1.005,3.877,3.877,0,0,1,0-2.839,2.345,2.345,0,0,1,.768-1,2,2,0,0,1,2.3,0,2.363,2.363,0,0,1,.764,1,3.876,3.876,0,0,1,0,2.839,2.37,2.37,0,0,1-.768,1.005,1.971,1.971,0,0,1-2.3,0Zm1.851-.7a1.651,1.651,0,0,0,.46-.709,3.29,3.29,0,0,0,0-2.023,1.621,1.621,0,0,0-.46-.71,1.081,1.081,0,0,0-1.4,0,1.639,1.639,0,0,0-.456.71,3.277,3.277,0,0,0,0,2.023,1.67,1.67,0,0,0,.456.709,1.066,1.066,0,0,0,1.4,0Z" transform="translate(-57.209 -122.346)" fill="#fff"></path><path id="Path_3163" data-name="Path 3163" d="M101.034,127.117q.249-.249.982-.986t.974-1a3.159,3.159,0,0,0,.448-.569,1.056,1.056,0,0,0,.121-.523.713.713,0,0,0-.235-.53.866.866,0,0,0-.63-.226.839.839,0,0,0-.6.214,1,1,0,0,0-.3.5l-.779-.32a1.582,1.582,0,0,1,.292-.553,1.743,1.743,0,0,1,.573-.46,1.77,1.77,0,0,1,.826-.186,1.908,1.908,0,0,1,.9.206,1.518,1.518,0,0,1,.609.562,1.483,1.483,0,0,1,.214.783,1.785,1.785,0,0,1-.238.885,3.616,3.616,0,0,1-.6.791q-.156.148-.788.78l-.639.639.016.031H104.5v.78h-3.47Z" transform="translate(-59.535 -122.346)" fill="#fff"></path><path id="Path_3164" data-name="Path 3164" d="M107.047,127.117q.249-.249.982-.986t.975-1a3.189,3.189,0,0,0,.448-.569,1.064,1.064,0,0,0,.121-.523.713.713,0,0,0-.235-.53.866.866,0,0,0-.631-.226.838.838,0,0,0-.6.214,1,1,0,0,0-.3.5l-.779-.32a1.579,1.579,0,0,1,.292-.553,1.746,1.746,0,0,1,.574-.46,1.77,1.77,0,0,1,.826-.186,1.91,1.91,0,0,1,.9.206,1.511,1.511,0,0,1,.608.562,1.483,1.483,0,0,1,.215.783,1.779,1.779,0,0,1-.239.885,3.593,3.593,0,0,1-.6.791q-.157.148-.788.78l-.639.639.016.031h2.323v.78h-3.47Z" transform="translate(-61.472 -122.346)" fill="#fff"></path></g></g></g></svg> 