<svg xmlns="http://www.w3.org/2000/svg" width="146.753" height="52" viewBox="0 0 146.753 52">
    <defs>
        <style>
            .cls-1{fill:#fff}
        </style>
    </defs>
    <g id="Group_368" data-name="Group 368" transform="translate(-466 -635)">
        <path id="XMLID_770_" d="M52 52H.073c0-.082-.005-.164-.009-.247-.006-.133-.014-.308-.014-.478V.617A2.586 2.586 0 0 0 .023.294V.238A.735.735 0 0 1 0 .08.174.174 0 0 0 .014.049.084.084 0 0 1 .036.007h.291C17.554 0 35.065 0 52 0V.149c-.006.1-.012.192-.012.286v51.13c0 .094.006.185.012.282v.008l.008.135V52zM12.918 26.088a12.455 12.455 0 0 0-1.944.155 8.1 8.1 0 0 0-6.2 4.227 9.126 9.126 0 0 0-.842 6.157 7.618 7.618 0 0 0 5.345 6.294 11.342 11.342 0 0 0 3.621.571 16.975 16.975 0 0 0 4.767-.76c.215-.065.232-.206.232-.384v-2.407c0-1.852 0-3.767.008-5.678 0-.3-.119-.355-.384-.355-.865 0-1.757.005-2.651.005s-1.786 0-2.651-.005a.406.406 0 0 0-.305.082.376.376 0 0 0-.073.281c.023.6.023 1.179 0 1.777a.391.391 0 0 0 .072.3.379.379 0 0 0 .289.082h.039c.217 0 .427-.005.662-.005h1.073c.235 0 .446 0 .662-.005h.033c.247 0 .33.086.33.342-.016 1.2-.008 2.414 0 3.482v.108c0 .235-.056.383-.335.4-.231.012-.462.031-.685.049h-.091a15 15 0 0 1-1.3.073c-.08 0-.171 0-.314-.007a5.4 5.4 0 0 1-4.386-2.32 6.446 6.446 0 0 1-1.01-5.12 5.347 5.347 0 0 1 3.914-4.459 8.548 8.548 0 0 1 2.326-.337 7.762 7.762 0 0 1 3.941 1.091 2.1 2.1 0 0 0 .218.129l.032.017.026.014.01.005.081.043.019.01.021-.273c0-.036.005-.072.009-.107s0-.048.005-.071v-.059l.024-.314v-.005l.012-.144.008-.1c.045-.575.087-1.119.119-1.687.007-.1-.171-.24-.291-.283a12.981 12.981 0 0 0-4.436-.809zm9.03 13.918l-.033.329-.012.119-.016.158-.016.156v.047l-.01.1c-.054.532-.111 1.081-.154 1.625-.007.072.115.211.2.239a11.533 11.533 0 0 0 3.728.689 8.157 8.157 0 0 0 1.653-.167 4.955 4.955 0 0 0 3.646-2.487 5.308 5.308 0 0 0 .544-2.77 4.054 4.054 0 0 0-1.576-3.285 18.008 18.008 0 0 0-1.938-1.222l-.029-.016-.014-.007-.028-.016-.119-.068c-.225-.129-.438-.25-.646-.375s-.439-.249-.7-.391l-.022-.012-.011-.005a12.9 12.9 0 0 1-1.148-.672 1.641 1.641 0 0 1-.7-1.871 1.734 1.734 0 0 1 1.453-1.3 4.956 4.956 0 0 1 1.174-.138 6.254 6.254 0 0 1 1.869.3c.308.088.6.192.918.308l.4.142c.1-.692.173-1.22.247-1.712v-.018c.135-.96.127-.971-.831-1.214a11.335 11.335 0 0 0-2.758-.383 7.1 7.1 0 0 0-2.522.44 4.232 4.232 0 0 0-2.927 3.437 4.1 4.1 0 0 0 1.823 4.409 19.6 19.6 0 0 0 1.761.982l.041.022c.361.186.661.341.957.5l.121.066.056.031.114.062.012.006h.007a7.35 7.35 0 0 1 1.26.8 2.2 2.2 0 0 1 .789 1.972 2.161 2.161 0 0 1-1.268 1.69 4.363 4.363 0 0 1-1.46.363 4.199 4.199 0 0 1-.39.017 7.749 7.749 0 0 1-2.617-.582l-.266-.1-.084-.031-.061-.022-.41-.154zm22.942-5.271l-.445.415c-.522.486-1.014.943-1.5 1.417-.051.052-.035.227 0 .319.621 1.457 1.258 2.934 1.873 4.363l.019.045.693 1.61a.374.374 0 0 0 .386.261h.028c.229-.006.476-.009.8-.009h1.917l-2.105-4.706-.01-.022-.034-.077-1.62-3.621zm-8.156.022c-1.246 2.8-2.438 5.466-3.755 8.4h.909c.828 0 1.436 0 1.974-.006a.442.442 0 0 0 .193-.066l.036-.019a2304.3 2304.3 0 0 0 6.47-3.169 2.144 2.144 0 0 0 .207-.114l.073-.043.041-.023-.255-.2-.109-.083-.158-.121-.147-.112c-.383-.294-.778-.6-1.17-.908a.433.433 0 0 0-.271-.113.515.515 0 0 0-.245.076c-.594.32-1.2.639-1.826.966l-.247.13q-.327.17-.651.341a3.2 3.2 0 0 1-.272.132l-.024.011-.021.009-.126.058.242-.557.024-.056c.354-.815.688-1.585 1.04-2.36a.359.359 0 0 0-.1-.493 41.304 41.304 0 0 1-.85-.784l-.033-.031-.526-.491c-.053-.05-.11-.1-.17-.151l-.016-.014-.018-.015-.219-.195zm1.48-.03c.342 0 .633 0 .916.015h.061a.581.581 0 0 0 .628-.458c.228-.61.479-1.206.744-1.836l.115-.275.136-.324.094.2a4.6 4.6 0 0 1 .1.22q.1.236.193.472l.005.013.007.016c.224.55.455 1.117.7 1.674.049.111.177.269.276.276.469.016.926.018 1.312.018h1.387l-.9-2v-.006l-.319-.711-.206-.458c-.891-1.98-1.732-3.85-2.592-5.772h-.1l-2.539 5.654-.048.106-1.429 3.181H37.522c.27-.004.49-.005.693-.005z" class="cls-1" transform="translate(466 635)"/>
        <g id="Group_367" data-name="Group 367" transform="translate(2 2)">
            <path id="XMLID_761_" d="M7.743 3.209H6.517C5.742 1.384 4.634.829 2.773 1.418a1.5 1.5 0 0 0-1.108 1.337 1.243 1.243 0 0 0 .925 1.417c1.108.374 2.227.691 3.324 1.077A2.736 2.736 0 0 1 7.969 8.24a3.414 3.414 0 0 1-2.463 2.788 6.117 6.117 0 0 1-3.517-.283A3.542 3.542 0 0 1 .02 7.424h.99A15.7 15.7 0 0 0 2.117 9.2a3.191 3.191 0 0 0 3.711.317 1.678 1.678 0 0 0 .828-1.5 1.352 1.352 0 0 0-.936-1.371c-1.108-.374-2.227-.68-3.335-1.065A2.621 2.621 0 0 1 .364 2.914 2.75 2.75 0 0 1 2.483.24 4.3 4.3 0 0 1 6.732 1a3.384 3.384 0 0 1 1.011 2.209z" class="cls-1" transform="translate(529 671.834)"/>
            <path id="XMLID_759_" d="M7.743 3.195H6.518C5.734 1.354 4.777.877 2.843 1.377A1.708 1.708 0 0 0 1.672 2.74 1.255 1.255 0 0 0 2.6 4.161c1.107.375 2.224.693 3.32 1.08a2.731 2.731 0 0 1 2.049 2.988 3.419 3.419 0 0 1-2.461 2.8 6 6 0 0 1-3.514-.284A3.57 3.57 0 0 1 .017 7.411H1a10.248 10.248 0 0 0 1.177 1.818 3.164 3.164 0 0 0 3.707.261 1.708 1.708 0 0 0 .774-1.534 1.344 1.344 0 0 0-.935-1.307C4.616 6.274 3.5 5.968 2.392 5.593a2.623 2.623 0 0 1-2.02-2.67A2.763 2.763 0 0 1 2.489.24 4.285 4.285 0 0 1 6.733 1a3.244 3.244 0 0 1 1.01 2.195z" class="cls-1" transform="translate(529 655.88)"/>
            <path id="XMLID_26_" d="M3.19 1.4a1.729 1.729 0 0 1-.368-.057C1.9.909 1.416 1.679 1.28 2.483a12.38 12.38 0 0 0-.126 1.8c-.019 1.223-.01 2.435-.01 3.692H0V.173h1c.019.306.029.578.048.929A1.151 1.151 0 0 0 1.29.886c.562-.94.844-1.008 1.833-.77" class="cls-1" transform="translate(548.142 659.071)"/>
            <path id="XMLID_28_" d="M4.786 7.951c-1.738.079-1.738.079-2.452-1.832Q1.351 3.472.393.826A9.714 9.714 0 0 0 0 0" class="cls-1" transform="translate(552.529 659.071)"/>
            <path id="XMLID_758_" d="M0 0c.669 0 .883.08 1.59.08C2.4 2.193 3.193 4.272 4 6.4 4.8 4.3 5.578 2.219 6.373.117h1.6C7 2.738 6.045 5.329 5.086 7.93a.563.563 0 0 1-.126.045" class="cls-1" transform="translate(552.529 659.071)"/>
            <path id="XMLID_752_" d="M1.351 11.167H0V0c.559.02 1.125.033 1.673.045C3.032.075 4.435.106 5.8.256a2.227 2.227 0 0 1 1.547 1.027 3.523 3.523 0 0 1 .535 2.8c-.516 2.029-1.558 2.484-3.3 2.614-.351.023-.728.034-1.185.034-.328 0-.651-.005-.993-.011s-.696-.02-1.053-.02v4.462zm2.1-9.838H1.376v4.1c.3 0 .6 0 .891.006h.012c.287 0 .572.006.854.006.443 0 .808-.008 1.147-.024A4.018 4.018 0 0 0 5.664 5.1a1.914 1.914 0 0 0 .9-2.115 1.834 1.834 0 0 0-1.587-1.637c-.444-.013-.93-.019-1.528-.019z" class="cls-1" transform="translate(529 640.738)"/>
            <path id="XMLID_740_" d="M3.1 11.166a3.075 3.075 0 0 1-1.548-.466A3.623 3.623 0 0 1 .046 7.813a5.33 5.33 0 0 1 .818-3.79A2.75 2.75 0 0 1 3.08 2.854a1.91 1.91 0 0 1 1.633.819.993.993 0 0 0 .183.192c.058.052.124.11.2.192C5.09 2.643 5.09 1.359 5.09 0h1.29v11.023H5.144a29.89 29.89 0 0 1-.029-.6c0-.114-.009-.213-.014-.294-.161.1-.324.229-.482.35a2.956 2.956 0 0 1-1.184.658 1.931 1.931 0 0 1-.335.029zm.06-7.054a1.586 1.586 0 0 0-1.549 1.08 4.416 4.416 0 0 0 .1 3.71 1.673 1.673 0 0 0 1.477 1.044 1.7 1.7 0 0 0 .2-.012 1.616 1.616 0 0 0 1.444-1.182 11.481 11.481 0 0 0 .276-1.2c.029-.148.058-.3.089-.447l-.1-.5c-.078-.409-.151-.794-.258-1.18a1.954 1.954 0 0 0-1.578-1.31z" class="cls-1" transform="translate(564.094 671.834)"/>
            <path id="XMLID_736_" d="M2.354 7.976a3.111 3.111 0 0 1-1.121-.218A2.313 2.313 0 0 1 0 5.808 2.1 2.1 0 0 1 1.224 3.87a25.305 25.305 0 0 1 1.71-.416c.416-.091.846-.185 1.266-.293.241-.068.622-.332.612-.454a1.967 1.967 0 0 0-.438-1.184 1.7 1.7 0 0 0-1.107-.389 2.276 2.276 0 0 0-1.86 1.031.724.724 0 0 1-.56.233.542.542 0 0 1-.058 0 1.357 1.357 0 0 1-.426-.1 4.006 4.006 0 0 0-.209-.067C.606.409 1.61.157 2.875.017A3.425 3.425 0 0 1 3.219 0a6.785 6.785 0 0 1 1.694.271A1.74 1.74 0 0 1 6.2 2.12v1.016c0 .505-.008 1.028.011 1.542.021.735.069 1.483.115 2.207l.057.917-.05.007c-.235.024-.4.042-.545.042-.451 0-.532-.179-.872-.934a4.232 4.232 0 0 1-2.562 1.059zm2.467-3.685c-.2.037-.4.07-.589.1-.277.047-.535.09-.8.142-.136.026-.276.046-.412.066a3.82 3.82 0 0 0-.985.233 1.528 1.528 0 0 0-.754.8 1 1 0 0 0 .346.841 1.852 1.852 0 0 0 1.049.338A2.536 2.536 0 0 0 4 6.384a2.022 2.022 0 0 0 .821-2.093z" class="cls-1" transform="translate(600.783 643.929)"/>
            <path id="XMLID_733_" d="M4.175 7.977a4.942 4.942 0 0 1-2.508-.666A3.749 3.749 0 0 1 .038 3.4 3.647 3.647 0 0 1 3.064.114 5.14 5.14 0 0 1 4.125 0 3.94 3.94 0 0 1 7.15 1.309a3.552 3.552 0 0 1 .775 2.915H1.606a1.928 1.928 0 0 0 .458 1.592 2.7 2.7 0 0 0 2.053.946 2.6 2.6 0 0 0 .722-.1 3.227 3.227 0 0 0 .961-.537 5.973 5.973 0 0 1 .538-.358 1.8 1.8 0 0 1 .8-.231h.032a1.692 1.692 0 0 1 .507.109c.074.024.15.049.224.068a3.705 3.705 0 0 1-3.726 2.264zM4.117 1.2c-.112 0-.229 0-.348.012C2.746 1.29 1.546 1.8 1.533 3H6.5a2.111 2.111 0 0 0-2.383-1.8z" class="cls-1" transform="translate(538.57 659.07)"/>
            <path id="XMLID_730_" d="M4.18 7.975a5.635 5.635 0 0 1-1-.089C-.3 7.264-.081 4.073.069 3.11A3.828 3.828 0 0 1 3.6.016C3.74.005 3.883 0 4.022 0a4 4 0 0 1 3.04 1.225 3.828 3.828 0 0 1 .883 3.017h-6.41a2.167 2.167 0 0 0 .575 1.671 2.706 2.706 0 0 0 2 .856 2.9 2.9 0 0 0 .682-.082 2.811 2.811 0 0 0 .94-.509 5.076 5.076 0 0 1 .575-.372 2.355 2.355 0 0 1 .867-.253h.059a1.488 1.488 0 0 1 .425.09c.077.024.158.049.236.067-.402 1.376-1.861 2.265-3.714 2.265zM4.148 1.2c-1.571 0-2.517.642-2.663 1.8l.212.013c.147.01.3.02.448.02h4.334A2.1 2.1 0 0 0 4.148 1.2z" class="cls-1" transform="translate(571.675 659.071)"/>
            <path id="XMLID_727_" d="M4.16 7.976A4.856 4.856 0 0 1 1.645 7.3c-1.308-.8-1.8-2.015-1.6-3.927A3.62 3.62 0 0 1 2.871.138 5.928 5.928 0 0 1 4.115 0a3.887 3.887 0 0 1 2.922 1.17 3.9 3.9 0 0 1 .92 3.061H1.585A2.122 2.122 0 0 0 2.133 5.9a2.712 2.712 0 0 0 2 .874 2.822 2.822 0 0 0 .666-.08 2.972 2.972 0 0 0 .962-.519 5.506 5.506 0 0 1 .543-.353 2.337 2.337 0 0 1 .85-.266.572.572 0 0 1 .081-.006 1.464 1.464 0 0 1 .429.093c.075.024.152.048.231.068A3.7 3.7 0 0 1 4.16 7.976zm-.149-6.381c-.119 0-.243 0-.369.013-1.2.089-2.024.725-2.047 1.582H6.38a2.113 2.113 0 0 0-2.369-1.595z" class="cls-1" transform="translate(556.118 643.928)"/>
            <path id="XMLID_724_" d="M4.169 7.976A4.9 4.9 0 0 1 1.645 7.3c-1.308-.8-1.8-2.015-1.6-3.927A3.621 3.621 0 0 1 2.871.138 5.928 5.928 0 0 1 4.116 0a3.888 3.888 0 0 1 2.917 1.166 3.889 3.889 0 0 1 .925 3.044H1.585a2.134 2.134 0 0 0 .543 1.69 2.7 2.7 0 0 0 2 .877 2.788 2.788 0 0 0 .662-.08 2.973 2.973 0 0 0 .964-.519A5.512 5.512 0 0 1 6.3 5.82a2.313 2.313 0 0 1 .85-.266.627.627 0 0 1 .084-.006 1.492 1.492 0 0 1 .44.094c.074.023.15.047.228.067a3.675 3.675 0 0 1-3.733 2.267zm-.118-6.767h-.039C2.6 1.209 1.644 1.894 1.524 3h4.965c-.143-1.156-1.008-1.791-2.438-1.791z" class="cls-1" transform="translate(554.523 675.024)"/>
            <path id="XMLID_721_" d="M4.188 7.976a4.972 4.972 0 0 1-2.515-.666A3.694 3.694 0 0 1 .043 3.4 3.624 3.624 0 0 1 3.07.115 5.134 5.134 0 0 1 4.134 0a3.874 3.874 0 0 1 3.005 1.3 3.6 3.6 0 0 1 .79 2.94H1.538a2.413 2.413 0 0 0 1.69 2.38 3.137 3.137 0 0 0 .961.154 2.848 2.848 0 0 0 2.111-.93 1.365 1.365 0 0 1 .838-.3h.058a1.5 1.5 0 0 1 .435.092c.089.028.18.056.273.076a3.685 3.685 0 0 1-3.716 2.264zM4.052 1.2H3.86c-1.16.05-2.334.677-2.322 1.79.058 0 .116.012.174.02a1.976 1.976 0 0 0 .264.024H6.509C6.333 1.819 5.507 1.2 4.052 1.2z" class="cls-1" transform="translate(583.234 675.024)"/>
            <path id="XMLID_720_" d="M6.342 11.166H4.986V6.387c0-1.526-.482-2.2-1.569-2.231A2.087 2.087 0 0 0 1.311 6.47c-.011 1.538 0 3.076 0 4.661H0V0h1.289v4.145a2.951 2.951 0 0 1 2.6-1.256C5.479 3.088 6.2 3.663 6.3 5.2c.154 1.962.042 3.947.042 5.966z" class="cls-1" transform="translate(546.547 671.834)"/>
            <path id="XMLID_717_" d="M3.14 7.976A2.949 2.949 0 0 1 .187 5.565a6.412 6.412 0 0 1 .237-3.83A3.106 3.106 0 0 1 3.286 0a2.506 2.506 0 0 1 .636.078C5.5.5 6.42 1.969 6.379 4.008a3.906 3.906 0 0 1-1.4 3.4 3.291 3.291 0 0 1-1.839.568zm.015-6.761h-.026a1.89 1.89 0 0 0-1.813 1.59 7 7 0 0 0-.128 1.688c.15 1.693 1.086 2.3 1.913 2.3a2.054 2.054 0 0 0 .881-.209c.963-.443 1.176-1.4 1.207-2.794a7.19 7.19 0 0 1-.023-.2 7.626 7.626 0 0 0-.124-.819 1.932 1.932 0 0 0-1.888-1.557z" class="cls-1" transform="translate(544.553 643.928)"/>
            <path id="XMLID_714_" d="M3.118 7.975a3 3 0 0 1-2.947-2.5A6.25 6.25 0 0 1 .448 1.7 3.172 3.172 0 0 1 3.322 0a2.459 2.459 0 0 1 .623.076c1.54.411 2.494 1.961 2.431 3.947a3.91 3.91 0 0 1-1.362 3.349 3.314 3.314 0 0 1-1.896.603zM3.195 1.2a1.873 1.873 0 0 0-1.858 1.617 6.729 6.729 0 0 0-.128 1.615c.1 1.43.857 2.354 1.92 2.354a2.079 2.079 0 0 0 .885-.209C4.93 6.144 5.147 5.215 5.2 3.856l-.013-.111a11.388 11.388 0 0 0-.135-.929A1.907 1.907 0 0 0 3.195 1.2z" class="cls-1" transform="translate(584.832 643.929)"/>
            <path id="XMLID_713_" d="M0 5.6a2.435 2.435 0 0 1 .771-.177.893.893 0 0 1 .628.321 2.23 2.23 0 0 0 3.261.619.96.96 0 0 0 .352-.73 1.183 1.183 0 0 0-.661-.664c-.881-.321-1.8-.553-2.7-.841A1.92 1.92 0 0 1 .088 2.341 2.107 2.107 0 0 1 1.421.306C2.545-.269 4.792-.014 5.4.9a12.27 12.27 0 0 1 .628 1.205 4.643 4.643 0 0 0-.749.155c-.386.144-.595.044-.8-.332a2.03 2.03 0 0 0-2.765-.365c-.463.42-.386.962.264 1.205 1.013.365 2.049.675 3.073.973a1.941 1.941 0 0 1 .881 3.108A2.773 2.773 0 0 1 3.9 7.96a7.042 7.042 0 0 1-2.2-.21A2.455 2.455 0 0 1 0 5.6z" class="cls-1" transform="translate(565.29 643.928)"/>
            <path id="XMLID_712_" d="M6.046 2.121a4.293 4.293 0 0 0-.728.143c-.375.154-.578.066-.781-.319a1.954 1.954 0 0 0-2.686-.385.659.659 0 0 0 .235 1.2c.984.374 1.99.649 2.986.978a1.96 1.96 0 0 1 .8 3.177 3.765 3.765 0 0 1-4.826.352A6.847 6.847 0 0 1 0 5.584a2.848 2.848 0 0 0 .728-.11c.492-.253.685-.011.9.418a2.174 2.174 0 0 0 3.36.176c.278-.44.054-.923-.567-1.132-.868-.287-1.757-.529-2.621-.826A1.884 1.884 0 0 1 .27 2.34 2.184 2.184 0 0 1 1.616.274c1.1-.528 3.242-.275 3.809.6.225.4.386.807.621 1.247z" class="cls-1" transform="translate(573.266 643.928)"/>
            <path id="XMLID_711_" d="M6.03 2.13a4.461 4.461 0 0 0-.746.144c-.384.144-.592.044-.8-.332a2.024 2.024 0 0 0-2.752-.377.665.665 0 0 0 .252 1.208c1.009.366 2.039.676 3.059.975a1.945 1.945 0 0 1 .888 3.1A2.792 2.792 0 0 1 3.914 7.96a7.062 7.062 0 0 1-2.2-.211A2.382 2.382 0 0 1 0 5.61a2.749 2.749 0 0 1 .767-.177.887.887 0 0 1 .625.321 2.213 2.213 0 0 0 3.245.632.965.965 0 0 0 .351-.731 1.183 1.183 0 0 0-.647-.676c-.877-.321-1.787-.554-2.686-.842A1.9 1.9 0 0 1 .1 2.074 2.307 2.307 0 0 1 1.864.157a3.452 3.452 0 0 1 3.508.754A4.91 4.91 0 0 1 6.03 2.13z" class="cls-1" transform="translate(580.843 659.071)"/>
            <path id="XMLID_710_" d="M1.312 7.976H0V.19h1.278c.023.305.034.576.057.994.226-.215.384-.373.543-.52C3.2-.533 5.745.01 6.118 1.32a3.913 3.913 0 0 1 .249.859c.023 1.921.011 3.842.011 5.8H5.021V3.094c0-1.107-.509-1.763-1.447-1.864a1.875 1.875 0 0 0-2.115 1.48 20.611 20.611 0 0 0-.147 2.644c-.023.87 0 1.729 0 2.622z" class="cls-1" transform="translate(592.807 643.928)"/>
            <path id="XMLID_709_" d="M5.075 0h1.306v7.886H5.1V6.831A6.384 6.384 0 0 1 3.431 7.9a4.447 4.447 0 0 1-1.937-.08A1.887 1.887 0 0 1 .042 5.846C-.037 3.92.019 1.994.019.023h1.363v4.848c0 1.043.281 1.582.968 1.834a1.829 1.829 0 0 0 2.274-.676 3.19 3.19 0 0 0 .439-1.513c.045-1.479.012-2.957.012-4.516z" class="cls-1" transform="translate(572.07 675.024)"/>
            <path id="XMLID_708_" d="M5.221 4.939c.4.066.78.132 1.16.2a3.093 3.093 0 0 1-4.4 2.546A3.356 3.356 0 0 1 .042 4.718 4.63 4.63 0 0 1 .96 1.026a3.11 3.11 0 0 1 3.1-.948 2.737 2.737 0 0 1 2.226 2.337 1.59 1.59 0 0 0-.527.055c-.443.231-.675.121-.907-.353a1.575 1.575 0 0 0-1.793-.893 1.826 1.826 0 0 0-1.508 1.3 4.266 4.266 0 0 0-.116 2.59c.327 1.113.833 1.587 1.7 1.642.97.055 1.5-.32 1.962-1.389.039-.12.06-.23.124-.428z" class="cls-1" transform="translate(565.29 659.071)"/>
            <path id="XMLID_707_" d="M6.254 2.465a1.319 1.319 0 0 0-.5.044c-.475.254-.718.1-.95-.386a1.594 1.594 0 0 0-1.815-.86A1.853 1.853 0 0 0 1.494 2.6a4.525 4.525 0 0 0-.063 2.72 1.845 1.845 0 0 0 1.636 1.466A1.76 1.76 0 0 0 4.988 5.54c.074-.165.127-.331.222-.562q.57.1 1.172.2a3.041 3.041 0 0 1-3.145 2.8A3.246 3.246 0 0 1 .09 5.154a5.244 5.244 0 0 1 .728-3.99A3.035 3.035 0 0 1 3.943.062a2.8 2.8 0 0 1 2.311 2.403z" class="cls-1" transform="translate(538.571 675.024)"/>
            <path id="XMLID_706_" d="M4.786.238c-.071.369-.13.668-.19.967-2.037.345-2.144.461-1.954 1.969h1.35v1.244h-1.41v6.748H1.149V4.487C.746 4.464.391 4.429 0 4.406V3.232c.355-.023.687-.046 1.113-.069C1.185 2.115 1 .929 2.215.307A3.165 3.165 0 0 1 4.786.238z" class="cls-1" transform="translate(551.333 640.738)"/>
            <path id="XMLID_703_" d="M1.6 11.166H0V0h1.6z" class="cls-1" transform="translate(580.046 671.834)"/>
            <path id="XMLID_702_" d="M0 11.166V0h1.6v11.166z" class="cls-1" transform="translate(609.158 640.738)"/>
            <path id="XMLID_701_" d="M4.786.394a6.666 6.666 0 0 0-.262.632c-.118.372-.38.44-.787.338-1.128-.264-1.901.17-2.037 1.185a24.209 24.209 0 0 0-.17 2.572c-.026.936 0 1.873 0 2.854H0V.214h1.337c.026.293.052.575.079.9C2.911-.17 3.291-.249 4.786.394z" class="cls-1" transform="translate(538.571 643.928)"/>
            <path id="XMLID_699_" d="M1.6 7.976H0V0h1.6z" class="cls-1" transform="translate(562 659.071)"/>
            <path id="XMLID_698_" d="M1.6 0v7.976H0V0z" class="cls-1" transform="translate(581.641 643.928)"/>
            <path id="XMLID_667_" d="M1.6 1.6H0V0h1.6z" class="cls-1" transform="translate(581.641 639.143)"/>
            <path id="XMLID_666_" d="M1.6 0v1.6H0V0z" class="cls-1" transform="translate(562 655.88)"/>
        </g>
        <path id="XMLID_167_" d="M2.933 5.973A2.963 2.963 0 0 1 0 2.986 2.963 2.963 0 0 1 2.933 0a2.963 2.963 0 0 1 2.933 2.986 2.964 2.964 0 0 1-2.933 2.987zm0-5.435A2.418 2.418 0 0 0 .539 2.975a2.419 2.419 0 0 0 2.394 2.438 2.419 2.419 0 0 0 2.394-2.438A2.419 2.419 0 0 0 2.933.538z" class="cls-1" transform="translate(520.071 635)"/>
        <path id="XMLID_162_" d="M.4 4H0V.08h.011A3.12 3.12 0 0 1 .769 0a1.084 1.084 0 0 1 .882.32 1.158 1.158 0 0 1 .236.76 1.037 1.037 0 0 1-.575 1.013v.014c.227.1.375.363.451.8A8.628 8.628 0 0 0 2 4h-.41a5.249 5.249 0 0 1-.205-.947c-.093-.55-.26-.76-.616-.773H.4V4zM.78.386A1 1 0 0 0 .39.44v1.453H.8a.68.68 0 0 0 .686-.761A.663.663 0 0 0 .78.386z" class="cls-1" transform="translate(522.3 636)"/>
    </g>
</svg>
