<?xml version="1.0" encoding="UTF-8"?> <svg xmlns="http://www.w3.org/2000/svg" width="114.92" height="91.31" viewBox="0 0 114.92 91.31"><g id="INC_5000-White" data-name="INC 5000-White" transform="translate(205.47 -6.04)"><path id="Path_3323" data-name="Path 3323" d="M-127.919,37.428h-4.12c-.029.119-.053.227-.082.334a1.586,1.586,0,0,1-1.661,1.275,1.575,1.575,0,0,1-1.775-1.2,6.609,6.609,0,0,1,.013-3.442,1.585,1.585,0,0,1,1.74-1.176,1.468,1.468,0,0,1,1.493,1.24c.09.361.131.73.2,1.13l4.135-.463a4.426,4.426,0,0,0-2.882-3.965,8.433,8.433,0,0,0-7.273.5,4.513,4.513,0,0,0-2.517,3.953,23.07,23.07,0,0,0,.171,2.6h-1.028v-.671c0-1.161.018-2.322,0-3.482a2.953,2.953,0,0,0-2.167-3.075c-2.267-.657-4.414-.526-6.135,1.374a2.958,2.958,0,0,1-.271.217V30.588h-6.046v3.079h1.3v4.6l-1.307.009V41.4c2.489,0,4.939.005,7.389-.015.1,0,.291-.228.291-.354.028-.78,0-1.56.02-2.34.007-.329-.123-.439-.438-.421s-.666,0-1.03,0c0-.947-.016-1.8,0-2.655a1.946,1.946,0,0,1,.107-.646,1.941,1.941,0,0,1,2.469-1.2A1.142,1.142,0,0,1-146.4,34.8c.046,1.134.014,2.27.014,3.461-.338,0-.638.02-.938-.005-.381-.033-.5.12-.486.49.025.7.034,1.411,0,2.111-.021.441.138.541.555.541,2.15-.019,4.3-.01,6.45-.01.167,0,.333-.02.587-.036V38.633a16.526,16.526,0,0,0,1.191,1.332c2.113,1.907,6.68,2.288,9.091.775A4.3,4.3,0,0,0-127.919,37.428Z" fill="#fff"></path><path id="Path_3324" data-name="Path 3324" d="M-134.92,46.01c-.12-.06-.23-.12-.35-.18a8.336,8.336,0,0,0-11.07,4.04,13.728,13.728,0,0,0-.65,10.91,8.149,8.149,0,0,0,3.68,4.57,8.314,8.314,0,0,0,11.34-3.13,13.7,13.7,0,0,0,1.82-6.88c-.12-.98-.16-1.97-.36-2.93A8.8,8.8,0,0,0-134.92,46.01Zm-1.86,17.18a6.772,6.772,0,0,1-.74,1.78c-.86,1.43-2.44,1.43-3.18-.07a9.705,9.705,0,0,1-.89-3.03,42.308,42.308,0,0,1,.17-12.66,8.982,8.982,0,0,1,.92-2.62c.82-1.52,2.41-1.47,3.24.06a10.954,10.954,0,0,1,1.04,4.46c.12,1.46.14,2.92.21,4.38A31.126,31.126,0,0,1-136.78,63.19Z" fill="#fff"></path><path id="Path_3325" data-name="Path 3325" d="M-156.44,45.13a8.07,8.07,0,0,0-7.77,3.49,12.793,12.793,0,0,0-2.22,7.75c.03.35.04.92.11,1.49a10.061,10.061,0,0,0,3.09,6.56c.18.16.37.31.56.45a8.115,8.115,0,0,0,11.36-1.69c2.88-3.84,3.13-8.17,1.61-12.58A7.682,7.682,0,0,0-156.44,45.13Zm1.16,17.51a8.43,8.43,0,0,1-.91,2.37,1.705,1.705,0,0,1-.92.89,1.709,1.709,0,0,1-2.22-.94,9.068,9.068,0,0,1-1.02-3.88,45.064,45.064,0,0,1,.2-11.37,21.285,21.285,0,0,1,.78-2.73,2.218,2.218,0,0,1,.4-.68,1.617,1.617,0,0,1,.6-.59,1.641,1.641,0,0,1,2.25.61,6.726,6.726,0,0,1,1.08,3.27c.18,1.68.29,3.36.44,5.05A39.071,39.071,0,0,1-155.28,62.64Z" fill="#fff"></path><path id="Path_3326" data-name="Path 3326" d="M-113.76,62.86a13.1,13.1,0,0,0,2.26-7.5c-.13-1.03-.19-2.08-.4-3.1a8.711,8.711,0,0,0-4.41-6.27h-.02a8.231,8.231,0,0,0-11.13,3.47,13.278,13.278,0,0,0-.74,11.67,7.747,7.747,0,0,0,6.68,5.25A8.1,8.1,0,0,0-113.76,62.86Zm-8.18,2.27a7.283,7.283,0,0,1-1.07-3.51,44.194,44.194,0,0,1,.2-12.21,12.649,12.649,0,0,1,.9-2.75,1.713,1.713,0,0,1,1.62-1.16,1.881,1.881,0,0,1,1.68,1.18,10.488,10.488,0,0,1,1,4.12c.14,1.55.18,3.11.24,4.29a34.684,34.684,0,0,1-.69,7.74,8.08,8.08,0,0,1-.94,2.3,1.528,1.528,0,0,1-.71.71A1.654,1.654,0,0,1-121.94,65.13Z" fill="#fff"></path><path id="Path_3327" data-name="Path 3327" d="M-126.383,41.607a1.75,1.75,0,0,0,1.733-1.751v-.029a1.722,1.722,0,0,0-1.708-1.737h-.03a1.759,1.759,0,0,0-1.776,1.742A1.78,1.78,0,0,0-126.383,41.607Z" fill="#fff"></path><path id="Path_3328" data-name="Path 3328" d="M-90.55,81.29a101.454,101.454,0,0,1-13.57-1.7,96.212,96.212,0,0,0,8.34-10.32,93.88,93.88,0,0,1-17.7,6.42,43.342,43.342,0,0,0,8.87-26.25,43.472,43.472,0,0,0-43.47-43.4,43.472,43.472,0,0,0-43.47,43.22v.09a43.274,43.274,0,0,0,8.81,26.28,93.713,93.713,0,0,1-17.5-6.36,95.1,95.1,0,0,0,8.35,10.32,101.6,101.6,0,0,1-13.58,1.7,65.975,65.975,0,0,0,15.87,5.8l-1.09,4.23a154.569,154.569,0,0,0,42.96,6.03,154.8,154.8,0,0,0,42.25-5.94c-.48-1.4-.96-2.8-1.45-4.2A66.207,66.207,0,0,0-90.55,81.29Zm-84.91,4.73-1.77-.34-.33,1.23c.16.02.31.04.44.07a1.758,1.758,0,0,1,1.14.64,1.479,1.479,0,0,1,.22,1.19,1.538,1.538,0,0,1-.72,1.09,2.01,2.01,0,0,1-1.44.19,2.353,2.353,0,0,1-1.05-.42l.15-.77a1.835,1.835,0,0,0,.93.52,1.281,1.281,0,0,0,.86-.1.87.87,0,0,0,.44-.63.81.81,0,0,0-.18-.72,1.508,1.508,0,0,0-.86-.41c-.13-.03-.41-.06-.82-.12l.68-2.58,2.45.48Zm4.53,3.3-.28,1.82-.83-.12.27-1.8-1.11-3.45.95.14.66,2.3a2.673,2.673,0,0,0,.06.31h.01a1.2,1.2,0,0,1,.16-.27l.93-1.37.42-.62.88.13-.63.87Zm4.88,1.8-.09.71-2.82-.36.47-3.69.17-1.34,2.71.35-.09.71-1.87-.24-.13.94-.06.48,1.43.18.03.01.27.03-.01.1-.08.6-1.73-.22-.19,1.49Zm4.06,1.15-.32-1.33-1.98-.2-.57,1.24-.91-.1,1.13-2.28,1.28-2.56.94.1.94,3.63.41,1.59Zm4.51.37-.44-.89-.26-.52a3.723,3.723,0,0,0-.19-.34,1.434,1.434,0,0,0-.2-.23.636.636,0,0,0-.22-.14.706.706,0,0,0-.28-.06l-.34-.03-.07.92-.09,1.13-.83-.06.1-1.29.28-3.63.01-.13,1.66.13a2.421,2.421,0,0,1,.65.13,1.707,1.707,0,0,1,.5.3,1.105,1.105,0,0,1,.27.38.251.251,0,0,1,.04.07,1.411,1.411,0,0,1,.08.61,1.41,1.41,0,0,1-.12.49,1.392,1.392,0,0,1-.25.38,1.459,1.459,0,0,1-.38.27,1.918,1.918,0,0,1-.48.15v.01a1.454,1.454,0,0,1,.23.19l.18.21c.06.08.11.16.16.24s.11.19.18.3l.39.74.39.75Zm4.14-.09a.487.487,0,0,1-.14.11,2.043,2.043,0,0,1-.62.2,3.578,3.578,0,0,1-.73.04c-.08-.01-.19-.02-.31-.04s-.25-.04-.38-.07-.24-.07-.36-.11a1.509,1.509,0,0,1-.28-.15l.02-.4.03-.46a1.052,1.052,0,0,0,.27.2,1.435,1.435,0,0,0,.33.16,1.651,1.651,0,0,0,.36.11,1.127,1.127,0,0,0,.32.05,1.363,1.363,0,0,0,.8-.13.568.568,0,0,0,.29-.5.52.52,0,0,0-.07-.32.9.9,0,0,0-.23-.25,2.638,2.638,0,0,0-.35-.23c-.14-.08-.28-.15-.44-.23-.16-.11-.32-.21-.46-.3a1.994,1.994,0,0,1-.37-.34,1.468,1.468,0,0,1-.24-.4,1.236,1.236,0,0,1-.06-.51,1.178,1.178,0,0,1,.1-.45c.03-.05.06-.11.09-.16a1.358,1.358,0,0,1,.45-.41,1.943,1.943,0,0,1,.61-.22,3.208,3.208,0,0,1,.69-.05,2.831,2.831,0,0,1,1.15.25l-.05.83a1.772,1.772,0,0,0-1.09-.37,1.528,1.528,0,0,0-.37.01,1.33,1.33,0,0,0-.34.1.836.836,0,0,0-.23.18l-.02.02a.55.55,0,0,0-.11.3.525.525,0,0,0,.06.3.876.876,0,0,0,.19.24,2.2,2.2,0,0,0,.32.21c.13.08.28.15.44.24a4.608,4.608,0,0,1,.49.32,2.571,2.571,0,0,1,.39.35,1.455,1.455,0,0,1,.26.43,1.27,1.27,0,0,1,.08.51,1.293,1.293,0,0,1-.19.64,1.185,1.185,0,0,1-.29.3C-153.33,92.56-153.33,92.56-153.34,92.55Zm4.15.49-.87-.03.01-.19.1-3.63.03-1.24.87.02-.03,1.24-.1,3.64Zm5.52.06h-.92l-.23-.36-2.17-3.38a.556.556,0,0,1-.09-.17.672.672,0,0,1-.06-.12h-.02v.12a3.707,3.707,0,0,1,.02.58l-.02,3.09v.22h-.81v-.21l.02-3.66.01-1.19h.98l.72,1.13,1.6,2.52c.09.15.16.26.18.31h.02a3.83,3.83,0,0,1-.03-.68l.01-2.29.01-.97.81.01-.01.86-.02,3.74Zm6.42-.16-.5-1.27-.2.01-1.79.05-.11.35-.28.95-.92.04.27-.82,1.38-4.11.07-.2.9-.03h.05l1.44,3.51.61,1.49Zm6.47-.42-.91-1.29a3.15,3.15,0,0,0-.24-.3,1.417,1.417,0,0,0-.22-.2.772.772,0,0,0-.25-.1,1.368,1.368,0,0,0-.29-.02l-.33.03.16,2.05-.84.06-.18-2.26-.22-2.78,1.66-.13a2.494,2.494,0,0,1,.67.03,1.557,1.557,0,0,1,.54.21,1.449,1.449,0,0,1,.38.4,1.344,1.344,0,0,1,.17.59,1.6,1.6,0,0,1-.03.44c0,.02-.01.04-.01.06a1.352,1.352,0,0,1-.2.42,1.617,1.617,0,0,1-.32.32,1.912,1.912,0,0,1-.45.23v.01a1.275,1.275,0,0,1,.25.15l.21.18c.07.07.14.14.2.21s.14.17.22.27l1.01,1.34Zm5.24-1.2a2.329,2.329,0,0,1-1.69.92,2.329,2.329,0,0,1-1.83-.5,2.669,2.669,0,0,1-.86-1.76,2.765,2.765,0,0,1,.04-1.11,2.842,2.842,0,0,1,.4-.91,2.422,2.422,0,0,1,1.73-.93,2.259,2.259,0,0,1,1.18.14,2.12,2.12,0,0,1,.61.37,2.626,2.626,0,0,1,.86,1.76A2.78,2.78,0,0,1-125.54,91.32Zm6.61-.4-.94.16-1.54-3.33a1.936,1.936,0,0,1-.16-.48h-.01a4.17,4.17,0,0,1,0,.5l-.36,3.66-.96.16-2.25-4.75.91-.15,1.53,3.5a1.979,1.979,0,0,1,.15.47h.02a2.752,2.752,0,0,1,.02-.5l.4-3.83.85-.15,1.58,3.52a3.663,3.663,0,0,1,.15.43h.01a3.684,3.684,0,0,1,0-.47l.26-3.82.85-.15Zm3.27-12.59c-1.64.42-3.29.79-4.94,1.13-.55.12-1.1.23-1.65.34-.22.05-.43.09-.64.12a136.929,136.929,0,0,1-27.19,2.45,137.172,137.172,0,0,1-23.68-2.3l-.16-.03c-.57-.1-1.14-.21-1.7-.33-1.52-.3-3.04-.63-4.55-.99q-3.405-.795-6.77-1.77c-.01,0-.01,0-.02-.01l5.43.21,4.67.19,3.04.12c-1.18-.18-2.35-.38-3.51-.61a36.978,36.978,0,0,1-6.13-8.59c1.14.16,2.31.4,3.49.48a13.56,13.56,0,0,0,8.32-1.87,8.823,8.823,0,0,0,3.02-11.23,7.264,7.264,0,0,0-3.01-2.88,11.93,11.93,0,0,0-10.52-.25,17.24,17.24,0,0,0-2.16,1.34l.92-4.81c1.01,0,1.95-.03,2.9.01a14.954,14.954,0,0,0,6.72-.93,13.568,13.568,0,0,0,6.41-6.02,1.23,1.23,0,0,1,1.28-.73c2.89.03,5.79.01,8.68.01h.68V38.26h-1.76V30.59h1.77V27.26h-9.78v3.28h1.73v7.7h-2.69c0,.88-.04,1.67.01,2.46a.9.9,0,0,1-.55.94,12.006,12.006,0,0,1-4.54,1.24,18.99,18.99,0,0,1-7.89-.77,10.873,10.873,0,0,1-1.56-.69c-.44-.22-.59-.16-.69.33q-1.335,7.065-2.67,14.12v.21l.55.24c.11-.2.2-.38.3-.55a6.428,6.428,0,0,1,4.1-3.3,3.347,3.347,0,0,1,4.19,2.07,12.125,12.125,0,0,1,.76,3.37,16.851,16.851,0,0,1-.73,6.98,7.968,7.968,0,0,1-1.29,2.38,2.9,2.9,0,0,1-3.96.48,1.4,1.4,0,0,1-.53-1.87,23.188,23.188,0,0,0,1.03-3.48,2.825,2.825,0,0,0-1.7-3.46,3.1,3.1,0,0,0-3.85,1.35,2.1,2.1,0,0,1-.14.17c-4.93-15.44.92-37.31,21.22-46.96.37-.17.75-.34,1.12-.51a39.782,39.782,0,0,1,52.34,20.65c.2.45.38.9.56,1.35a39.71,39.71,0,0,1-8.43,42.07c-.79.15-1.58.28-2.38.4l2.08-.09,5.49-.25,4.16-.18C-112.18,77.44-113.92,77.91-115.66,78.33Z" fill="#fff"></path><path id="Path_3329" data-name="Path 3329" d="M-126.53,88.13a1.346,1.346,0,0,0-1.12-.36h-.06a1.413,1.413,0,0,0-.97.53.481.481,0,0,0-.09.11,2.071,2.071,0,0,0-.28,1.41,2.05,2.05,0,0,0,.58,1.3,1.347,1.347,0,0,0,1.16.39,1.446,1.446,0,0,0,1.08-.62,2,2,0,0,0,.26-1.41A2.126,2.126,0,0,0-126.53,88.13Z" fill="#fff"></path><path id="Path_3330" data-name="Path 3330" d="M-162.99,87.83H-163a1.6,1.6,0,0,1-.1.31l-.81,1.75-.09.19.8.08.74.08-.49-2.08C-162.97,88.05-162.98,87.94-162.99,87.83Z" fill="#fff"></path><path id="Path_3331" data-name="Path 3331" d="M-157.79,89.36a.878.878,0,0,0,.1-.35.711.711,0,0,0-.19-.59.934.934,0,0,0-.64-.25l-.71-.06-.13,1.64.7.06a.889.889,0,0,0,.36-.04.847.847,0,0,0,.3-.15A.755.755,0,0,0-157.79,89.36Z" fill="#fff"></path><path id="Path_3332" data-name="Path 3332" d="M-131.55,88.96a.687.687,0,0,0-.27-.55.958.958,0,0,0-.68-.15l-.71.05.13,1.64.7-.05a1.128,1.128,0,0,0,.18-.03c.01,0,.02-.01.03-.01a.88.88,0,0,0,.15-.05.25.25,0,0,0,.07-.04.951.951,0,0,0,.2-.15.924.924,0,0,0,.16-.29A.938.938,0,0,0-131.55,88.96Z" fill="#fff"></path><path id="Path_3333" data-name="Path 3333" d="M-138.84,88.68h-.02a1.8,1.8,0,0,1-.06.32l-.62,2.04,1.55-.05-.78-2A1.554,1.554,0,0,1-138.84,88.68Z" fill="#fff"></path><path id="Path_3334" data-name="Path 3334" d="M-149.31,24.432a1.5,1.5,0,0,0,1.3.536,1.5,1.5,0,0,0,1.3-.537,3.62,3.62,0,0,0,.39-1.992,3.614,3.614,0,0,0-.389-1.991,1.5,1.5,0,0,0-1.3-.536,1.5,1.5,0,0,0-1.3.536,3.6,3.6,0,0,0-.389,1.993A3.607,3.607,0,0,0-149.31,24.432Zm.915-2.812a1.883,1.883,0,0,1,.088-.707.3.3,0,0,1,.3-.189.3.3,0,0,1,.3.182,2.006,2.006,0,0,1,.084.714v1.634a1.925,1.925,0,0,1-.088.707.3.3,0,0,1-.3.189.3.3,0,0,1-.3-.182,1.965,1.965,0,0,1-.084-.71Z" fill="#fff"></path><path id="Path_3335" data-name="Path 3335" d="M-151.727,22.086l-.868.882a2.425,2.425,0,0,0-.575.881,2.968,2.968,0,0,0-.167,1.019h3.261v-.98h-1.707a.536.536,0,0,1,.088-.154,2.934,2.934,0,0,1,.234-.252l.77-.749a2.239,2.239,0,0,0,.459-.648,1.971,1.971,0,0,0,.156-.823,1.376,1.376,0,0,0-.342-.994,1.717,1.717,0,0,0-1.252-.356,2.376,2.376,0,0,0-.816.116,1.112,1.112,0,0,0-.494.34,1.221,1.221,0,0,0-.248.513,3.2,3.2,0,0,0-.067.711l1.216,0v-.21a.953.953,0,0,1,.1-.522.308.308,0,0,1,.265-.136.284.284,0,0,1,.253.126.8.8,0,0,1,.083.427,1.088,1.088,0,0,1-.079.444A1.305,1.305,0,0,1-151.727,22.086Z" fill="#fff"></path><path id="Path_3336" data-name="Path 3336" d="M-144.447,22.086l-.868.882a2.409,2.409,0,0,0-.577.881,2.967,2.967,0,0,0-.165,1.019h3.262v-.977H-144.5a.536.536,0,0,1,.088-.154,2.79,2.79,0,0,1,.234-.252l.77-.749a2.236,2.236,0,0,0,.458-.648,2,2,0,0,0,.158-.823,1.381,1.381,0,0,0-.343-.994,1.719,1.719,0,0,0-1.253-.357,2.351,2.351,0,0,0-.816.115,1.121,1.121,0,0,0-.494.339,1.245,1.245,0,0,0-.248.513,3.2,3.2,0,0,0-.067.711l1.216,0v-.21a.961.961,0,0,1,.1-.522.311.311,0,0,1,.267-.136.283.283,0,0,1,.252.126.808.808,0,0,1,.084.427,1.106,1.106,0,0,1-.08.444A1.3,1.3,0,0,1-144.447,22.086Z" fill="#fff"></path><path id="Path_3337" data-name="Path 3337" d="M-141.27,24.868h1.3V19.913h-.932a.95.95,0,0,1-.406.612,1.918,1.918,0,0,1-.9.157v.812h.938Z" fill="#fff"></path></g></svg> 