<svg xmlns="http://www.w3.org/2000/svg" width="125.671" height="52.5" viewBox="0 0 125.671 52.5">
    <defs>
        <style>
            .cls-1{fill:none;stroke:#fff;stroke-miterlimit:10}.cls-2{fill:#fff}
        </style>
    </defs>
    <g id="Group_289" data-name="Group 289" transform="translate(-95.914 -312.48)">
        <path id="Rectangle_192" d="M0 0h124.671v51.5H0z" class="cls-1" data-name="Rectangle 192" transform="translate(96.414 312.98)"/>
        <g id="Group_288" data-name="Group 288" transform="translate(143.034 324.108)">
            <path id="Path_1631" d="M201.309 337.949c-.087-1.63-.191-3.59-.173-5.046h-.052a69.95 69.95 0 0 1-1.474 4.439l-2.064 5.671H196.4l-1.891-5.567c-.554-1.648-1.023-3.157-1.353-4.544h-.035a158.579 158.579 0 0 1-.225 5.168l-.312 5.012h-1.44l.816-11.689h1.924l1.995 5.654c.486 1.439.884 2.723 1.179 3.936h.052c.295-1.179.711-2.462 1.231-3.936l2.081-5.654h1.925l.728 11.689H201.6z" class="cls-2" data-name="Path 1631" transform="translate(-191.146 -330.77)"/>
            <path id="Path_1632" d="M225.572 346.6l-.122-1.057h-.05a3.127 3.127 0 0 1-2.567 1.249 2.392 2.392 0 0 1-2.567-2.411c0-2.029 1.8-3.139 5.046-3.121v-.173a1.73 1.73 0 0 0-1.908-1.943 4.186 4.186 0 0 0-2.185.624l-.347-1.006a5.209 5.209 0 0 1 2.757-.746c2.567 0 3.191 1.751 3.191 3.434v3.14a11.813 11.813 0 0 0 .139 2.011zm-.226-4.283c-1.664-.035-3.555.26-3.555 1.89a1.35 1.35 0 0 0 1.439 1.457 2.089 2.089 0 0 0 2.029-1.4 1.606 1.606 0 0 0 .086-.486z" class="cls-2" data-name="Path 1632" transform="translate(-206.617 -334.289)"/>
            <path id="Path_1633" d="M239.425 340.826c0-.988-.017-1.838-.07-2.619h1.336l.052 1.648h.069a2.519 2.519 0 0 1 2.324-1.839 1.65 1.65 0 0 1 .434.052v1.44a2.293 2.293 0 0 0-.521-.052 2.141 2.141 0 0 0-2.046 1.96 4.289 4.289 0 0 0-.069.711v4.473h-1.509z" class="cls-2" data-name="Path 1633" transform="translate(-216.76 -334.289)"/>
            <path id="Path_1634" d="M253.26 337.831h.034c.208-.295.5-.659.746-.954l2.462-2.9h1.838l-3.242 3.451 3.694 4.942h-1.856l-2.9-4.024-.78.868v3.156h-1.509v-12.308h1.509z" class="cls-2" data-name="Path 1634" transform="translate(-223.346 -330.062)"/>
            <path id="Path_1635" d="M269.266 342.682a2.689 2.689 0 0 0 2.879 2.913 5.513 5.513 0 0 0 2.324-.434l.26 1.093a6.787 6.787 0 0 1-2.792.521 3.9 3.9 0 0 1-4.127-4.232c0-2.532 1.491-4.527 3.937-4.527 2.74 0 3.468 2.411 3.468 3.954a5.75 5.75 0 0 1-.052.711zm4.474-1.092a2.173 2.173 0 0 0-2.116-2.48 2.529 2.529 0 0 0-2.341 2.48z" class="cls-2" data-name="Path 1635" transform="translate(-231.878 -334.289)"/>
            <path id="Path_1636" d="M288.4 333.281v2.41h2.186v1.162H288.4v4.526c0 1.04.3 1.631 1.145 1.631a3.4 3.4 0 0 0 .885-.1l.069 1.145a3.733 3.733 0 0 1-1.353.209 2.115 2.115 0 0 1-1.647-.642 3.109 3.109 0 0 1-.59-2.185v-4.578h-1.3v-1.162h1.3v-2.017z" class="cls-2" data-name="Path 1636" transform="translate(-241.333 -331.772)"/>
            <path id="Path_1637" d="M301.371 332.311a.945.945 0 0 1-1.891 0 .93.93 0 0 1 .954-.954.906.906 0 0 1 .937.954zm-1.7 10.752v-8.394h1.529v8.394z" class="cls-2" data-name="Path 1637" transform="translate(-248.705 -330.75)"/>
            <path id="Path_1638" d="M308.466 340.48c0-.868-.017-1.578-.07-2.272h1.353l.087 1.387h.035a3.087 3.087 0 0 1 2.775-1.578c1.161 0 2.965.694 2.965 3.573v5.01h-1.526v-4.838c0-1.353-.5-2.48-1.942-2.48a2.169 2.169 0 0 0-2.047 1.561 2.2 2.2 0 0 0-.1.711v5.046h-1.526z" class="cls-2" data-name="Path 1638" transform="translate(-253.442 -334.289)"/>
            <path id="Path_1639" d="M335.624 338.208a36.764 36.764 0 0 0-.069 2.306v4.874c0 1.925-.382 3.1-1.2 3.832a4.447 4.447 0 0 1-3.052 1.006 5.418 5.418 0 0 1-2.792-.694l.382-1.162a4.733 4.733 0 0 0 2.462.659c1.561 0 2.706-.815 2.706-2.931v-.936h-.035a3 3 0 0 1-2.671 1.4c-2.081 0-3.572-1.769-3.572-4.093 0-2.844 1.856-4.457 3.781-4.457a2.79 2.79 0 0 1 2.618 1.457h.035l.069-1.266zm-1.578 3.313a2.233 2.233 0 0 0-2.22-2.306c-1.456 0-2.5 1.231-2.5 3.173 0 1.647.832 3.018 2.48 3.018a2.231 2.231 0 0 0 2.116-1.561 2.655 2.655 0 0 0 .121-.815z" class="cls-2" data-name="Path 1639" transform="translate(-263.744 -334.289)"/>
            <path id="Path_1640" d="M191.812 366.434a17.474 17.474 0 0 1 2.9-.226 4.8 4.8 0 0 1 3.278.972 3.142 3.142 0 0 1 1.023 2.445 3.442 3.442 0 0 1-.9 2.5 4.843 4.843 0 0 1-3.572 1.283 5.2 5.2 0 0 1-1.214-.1v4.682h-1.509zm1.509 5.636a5.035 5.035 0 0 0 1.249.122c1.821 0 2.931-.885 2.931-2.5 0-1.543-1.093-2.289-2.758-2.289a6.334 6.334 0 0 0-1.422.121z" class="cls-2" data-name="Path 1640" transform="translate(-191.5 -349.267)"/>
            <path id="Path_1641" d="M214.325 381.6l-.122-1.057h-.052a3.127 3.127 0 0 1-2.567 1.249 2.392 2.392 0 0 1-2.567-2.411c0-2.029 1.8-3.139 5.046-3.121v-.173a1.73 1.73 0 0 0-1.908-1.943 4.185 4.185 0 0 0-2.185.624l-.347-1.006a5.212 5.212 0 0 1 2.758-.746c2.567 0 3.191 1.751 3.191 3.434v3.14a11.811 11.811 0 0 0 .139 2.011zm-.226-4.283c-1.664-.035-3.555.26-3.555 1.89a1.35 1.35 0 0 0 1.439 1.457 2.089 2.089 0 0 0 2.029-1.4 1.607 1.607 0 0 0 .086-.486z" class="cls-2" data-name="Path 1641" transform="translate(-200.642 -352.885)"/>
            <path id="Path_1642" d="M228.179 375.826c0-.988-.017-1.838-.07-2.619h1.336l.052 1.648h.069a2.519 2.519 0 0 1 2.324-1.839 1.65 1.65 0 0 1 .434.052v1.44a2.294 2.294 0 0 0-.521-.052 2.141 2.141 0 0 0-2.046 1.96 4.289 4.289 0 0 0-.069.711v4.473h-1.509z" class="cls-2" data-name="Path 1642" transform="translate(-210.785 -352.885)"/>
            <path id="Path_1643" d="M242 368.281v2.41h2.186v1.162H242v4.526c0 1.04.3 1.631 1.145 1.631a3.392 3.392 0 0 0 .885-.1l.069 1.145a3.733 3.733 0 0 1-1.353.209 2.116 2.116 0 0 1-1.648-.642 3.109 3.109 0 0 1-.59-2.185v-4.578h-1.3v-1.162h1.3v-2.017z" class="cls-2" data-name="Path 1643" transform="translate(-216.682 -350.368)"/>
            <path id="Path_1644" d="M253.411 375.48c0-.868-.017-1.578-.069-2.272h1.353l.087 1.387h.035a3.087 3.087 0 0 1 2.775-1.578c1.162 0 2.965.694 2.965 3.573v5.01h-1.527v-4.838c0-1.353-.5-2.48-1.942-2.48a2.239 2.239 0 0 0-2.151 2.272v5.046h-1.526z" class="cls-2" data-name="Path 1644" transform="translate(-224.192 -352.885)"/>
            <path id="Path_1645" d="M274.187 377.682a2.689 2.689 0 0 0 2.878 2.913 5.512 5.512 0 0 0 2.324-.434l.26 1.093a6.787 6.787 0 0 1-2.792.521 3.9 3.9 0 0 1-4.128-4.232c0-2.532 1.491-4.527 3.937-4.527 2.74 0 3.468 2.411 3.468 3.954a5.751 5.751 0 0 1-.052.711zm4.474-1.092a2.173 2.173 0 0 0-2.116-2.48 2.529 2.529 0 0 0-2.341 2.48z" class="cls-2" data-name="Path 1645" transform="translate(-234.493 -352.885)"/>
            <path id="Path_1646" d="M292.482 375.826c0-.988-.017-1.838-.069-2.619h1.336l.052 1.648h.069a2.52 2.52 0 0 1 2.324-1.839 1.647 1.647 0 0 1 .434.052v1.44a2.289 2.289 0 0 0-.52-.052 2.141 2.141 0 0 0-2.046 1.96 4.241 4.241 0 0 0-.069.711v4.473h-1.509z" class="cls-2" data-name="Path 1646" transform="translate(-244.95 -352.885)"/>
        </g>
        <path id="Path_1647" d="M142.384 327.791h-26.058a4.807 4.807 0 0 0-4.807 4.807v26.058a4.807 4.807 0 0 0 4.807 4.807h12.851l.022-12.747h-3.311a.781.781 0 0 1-.781-.779l-.017-4.109a.782.782 0 0 1 .782-.785h3.306v-3.97c0-4.608 2.813-7.116 6.924-7.116h3.373a.782.782 0 0 1 .782.781v3.462a.782.782 0 0 1-.781.782H137.4c-2.235 0-2.668 1.062-2.668 2.621v3.437h4.912a.781.781 0 0 1 .775.873l-.487 4.109a.781.781 0 0 1-.776.69h-4.4l-.022 12.747h7.647a4.806 4.806 0 0 0 4.806-4.807V332.6a4.806 4.806 0 0 0-4.806-4.807" class="cls-2" data-name="Path 1647" transform="translate(-9.034 -6.896)"/>
    </g>
</svg>
