<?xml version="1.0" encoding="UTF-8"?> <svg xmlns="http://www.w3.org/2000/svg" width="207.688" height="70.757" viewBox="0 0 207.688 70.757"><g id="Microsoft_Partner_2022-White" data-name="Microsoft Partner 2022-White" transform="translate(0.5 0.501)"><rect id="Rectangle_482" data-name="Rectangle 482" width="206.688" height="69.757" transform="translate(0 -0.001)" fill="none" stroke="#fff" stroke-width="1"></rect><rect id="Rectangle_483" data-name="Rectangle 483" width="25.836" height="69.757" transform="translate(0 -0.001)" fill="none" stroke="#fff" stroke-width="1"></rect><g id="Group_1468" data-name="Group 1468" transform="translate(7.07 16.453)"><path id="Path_3165" data-name="Path 3165" d="M14.385,75.153a2.431,2.431,0,0,0-.94.168,1.865,1.865,0,0,0-.667.458,1.888,1.888,0,0,0-.4.683,2.667,2.667,0,0,0-.131.851,2.813,2.813,0,0,0,.106.769,3.787,3.787,0,0,0,.295.733,4.553,4.553,0,0,0,.45.687,5,5,0,0,0,.581.617h-1.44a3.986,3.986,0,0,1-.838-1.264,4.436,4.436,0,0,1-.291-1.705,4.1,4.1,0,0,1,.209-1.333,3.039,3.039,0,0,1,.609-1.064,2.82,2.82,0,0,1,.99-.708,3.346,3.346,0,0,1,1.35-.258,4.657,4.657,0,0,1,1.26.159,3.9,3.9,0,0,1,1.063.483,5.109,5.109,0,0,1,.958.814,11.611,11.611,0,0,1,.933,1.154q.589.826,1.006,1.362a6.01,6.01,0,0,0,.782.851,2.26,2.26,0,0,0,.728.441,2.535,2.535,0,0,0,.839.127V73.337h1.2v7.241H22.46a4.85,4.85,0,0,1-1.326-.164,3.423,3.423,0,0,1-1.088-.54,6,6,0,0,1-1.031-.986q-.515-.609-1.162-1.493a9.274,9.274,0,0,0-.875-1.067,4.52,4.52,0,0,0-.835-.692,2.994,2.994,0,0,0-.847-.372A3.635,3.635,0,0,0,14.385,75.153Z" transform="translate(-11.112 -42.469)" fill="#fff"></path><path id="Path_3166" data-name="Path 3166" d="M17.126,57.041a11.528,11.528,0,0,1,2.61.266,6.052,6.052,0,0,1,1.919.769,3.475,3.475,0,0,1,1.187,1.235,3.392,3.392,0,0,1,.4,1.665,3.165,3.165,0,0,1-.388,1.575,3.294,3.294,0,0,1-1.134,1.166,5.729,5.729,0,0,1-1.828.721,11.349,11.349,0,0,1-2.483.245,12.831,12.831,0,0,1-2.716-.257,6.237,6.237,0,0,1-1.977-.757,3.365,3.365,0,0,1-1.2-1.239,3.473,3.473,0,0,1-.405-1.7Q11.112,57.041,17.126,57.041Zm.131,1.375q-5.008,0-5.008,2.381,0,2.511,5.1,2.512,4.753,0,4.754-2.463Q22.1,58.416,17.257,58.416Z" transform="translate(-11.112 -36.675)" fill="#fff"></path><path id="Path_3167" data-name="Path 3167" d="M14.385,43.222a2.431,2.431,0,0,0-.94.168,1.857,1.857,0,0,0-.667.458,1.882,1.882,0,0,0-.4.683,2.666,2.666,0,0,0-.131.851,2.818,2.818,0,0,0,.106.769,3.766,3.766,0,0,0,.295.732,4.527,4.527,0,0,0,.45.688,5.053,5.053,0,0,0,.581.618h-1.44a4,4,0,0,1-.838-1.264,4.448,4.448,0,0,1-.291-1.707,4.1,4.1,0,0,1,.209-1.333,3.024,3.024,0,0,1,.609-1.063,2.814,2.814,0,0,1,.99-.708,3.335,3.335,0,0,1,1.35-.258,4.606,4.606,0,0,1,1.26.16,3.9,3.9,0,0,1,1.063.483,5.107,5.107,0,0,1,.958.814,11.672,11.672,0,0,1,.933,1.153q.589.827,1.006,1.363a6.037,6.037,0,0,0,.782.851A2.271,2.271,0,0,0,21,47.12a2.535,2.535,0,0,0,.839.127V41.405h1.2v7.242H22.46a4.85,4.85,0,0,1-1.326-.164,3.463,3.463,0,0,1-1.088-.54,6.053,6.053,0,0,1-1.031-.987q-.515-.608-1.162-1.493a9.329,9.329,0,0,0-.875-1.067,4.535,4.535,0,0,0-.835-.691,3,3,0,0,0-.847-.373A3.665,3.665,0,0,0,14.385,43.222Z" transform="translate(-11.112 -31.116)" fill="#fff"></path><path id="Path_3168" data-name="Path 3168" d="M14.385,27.257a2.419,2.419,0,0,0-.94.168,1.855,1.855,0,0,0-.667.458,1.89,1.89,0,0,0-.4.684,2.663,2.663,0,0,0-.131.851,2.818,2.818,0,0,0,.106.769,3.777,3.777,0,0,0,.295.731,4.5,4.5,0,0,0,.45.688,4.955,4.955,0,0,0,.581.617h-1.44a3.99,3.99,0,0,1-.838-1.264,4.444,4.444,0,0,1-.291-1.706,4.1,4.1,0,0,1,.209-1.334,3.036,3.036,0,0,1,.609-1.063,2.828,2.828,0,0,1,.99-.708,3.335,3.335,0,0,1,1.35-.258,4.631,4.631,0,0,1,1.26.16,3.879,3.879,0,0,1,1.063.483,5.152,5.152,0,0,1,.958.813,11.7,11.7,0,0,1,.933,1.154q.589.827,1.006,1.362a6.037,6.037,0,0,0,.782.851,2.263,2.263,0,0,0,.728.442,2.569,2.569,0,0,0,.839.127V25.44h1.2v7.241H22.46a4.825,4.825,0,0,1-1.326-.164,3.423,3.423,0,0,1-1.088-.54,5.993,5.993,0,0,1-1.031-.985q-.515-.61-1.162-1.493a9.341,9.341,0,0,0-.875-1.068,4.567,4.567,0,0,0-.835-.692,2.994,2.994,0,0,0-.847-.372A3.636,3.636,0,0,0,14.385,27.257Z" transform="translate(-11.112 -25.44)" fill="#fff"></path></g><g id="Group_1470" data-name="Group 1470" transform="translate(38.577 12.947)"><path id="Path_3169" data-name="Path 3169" d="M94.37,23.685v7.734H93.027V25.356h-.021l-2.4,6.062h-.89l-2.459-6.062h-.016v6.062H86V23.685h1.926l2.222,5.733h.032l2.346-5.733Zm1.123.588a.71.71,0,0,1,.235-.542.791.791,0,0,1,.558-.218.781.781,0,0,1,.572.224.729.729,0,0,1,.226.537.7.7,0,0,1-.231.534.8.8,0,0,1-.566.216.786.786,0,0,1-.564-.218A.706.706,0,0,1,95.494,24.272Zm1.44,1.6v5.544H95.628V25.874Zm3.959,4.6a1.792,1.792,0,0,0,.641-.135,2.725,2.725,0,0,0,.648-.356v1.213a2.61,2.61,0,0,1-.71.27,3.858,3.858,0,0,1-.871.092A2.638,2.638,0,0,1,97.845,28.8a3.161,3.161,0,0,1,.782-2.2,2.832,2.832,0,0,1,2.216-.866,3.048,3.048,0,0,1,.742.094,2.5,2.5,0,0,1,.6.218V27.3a2.678,2.678,0,0,0-.618-.343,1.786,1.786,0,0,0-.644-.121,1.636,1.636,0,0,0-1.246.5A1.889,1.889,0,0,0,99.2,28.69,1.8,1.8,0,0,0,99.654,30,1.644,1.644,0,0,0,100.892,30.469Zm5-4.687a1.68,1.68,0,0,1,.281.021,1.249,1.249,0,0,1,.21.054v1.321a1.127,1.127,0,0,0-.3-.142,1.48,1.48,0,0,0-.478-.068,1.014,1.014,0,0,0-.812.4,1.942,1.942,0,0,0-.331,1.246v2.8h-1.305V25.874h1.305v.874h.021a1.531,1.531,0,0,1,.539-.71A1.467,1.467,0,0,1,105.9,25.782Zm.562,2.945a3,3,0,0,1,.777-2.179,2.86,2.86,0,0,1,2.157-.8,2.659,2.659,0,0,1,2.031.774,2.921,2.921,0,0,1,.731,2.09,2.948,2.948,0,0,1-.777,2.147,2.813,2.813,0,0,1-2.115.8,2.766,2.766,0,0,1-2.047-.758A2.8,2.8,0,0,1,106.459,28.727Zm1.359-.043a1.982,1.982,0,0,0,.393,1.327,1.405,1.405,0,0,0,1.127.458,1.314,1.314,0,0,0,1.084-.458,2.119,2.119,0,0,0,.373-1.359,2.044,2.044,0,0,0-.386-1.351,1.337,1.337,0,0,0-1.081-.456,1.366,1.366,0,0,0-1.114.477A2.074,2.074,0,0,0,107.818,28.684Zm6.277-1.353a.56.56,0,0,0,.178.44,3.064,3.064,0,0,0,.788.4,2.672,2.672,0,0,1,1.1.7,1.458,1.458,0,0,1,.316.947,1.522,1.522,0,0,1-.6,1.257,2.556,2.556,0,0,1-1.627.474,3.9,3.9,0,0,1-.763-.084,3.381,3.381,0,0,1-.709-.213V29.973a3.19,3.19,0,0,0,.766.394,2.24,2.24,0,0,0,.744.146,1.329,1.329,0,0,0,.653-.124.445.445,0,0,0,.21-.416.577.577,0,0,0-.219-.456,3.249,3.249,0,0,0-.827-.429,2.553,2.553,0,0,1-1.025-.68,1.485,1.485,0,0,1-.3-.96,1.515,1.515,0,0,1,.6-1.232,2.373,2.373,0,0,1,1.545-.483,3.735,3.735,0,0,1,.653.064,2.871,2.871,0,0,1,.6.168v1.24a2.788,2.788,0,0,0-.6-.3,2.022,2.022,0,0,0-.685-.124,1,1,0,0,0-.58.146A.464.464,0,0,0,114.095,27.33Zm2.939,1.4a3,3,0,0,1,.777-2.179,2.86,2.86,0,0,1,2.157-.8,2.659,2.659,0,0,1,2.031.774,2.921,2.921,0,0,1,.731,2.09,2.948,2.948,0,0,1-.777,2.147,2.812,2.812,0,0,1-2.114.8,2.764,2.764,0,0,1-2.046-.758A2.793,2.793,0,0,1,117.034,28.727Zm1.359-.043a1.978,1.978,0,0,0,.394,1.327,1.4,1.4,0,0,0,1.127.458A1.315,1.315,0,0,0,121,30.011a2.119,2.119,0,0,0,.372-1.359,2.044,2.044,0,0,0-.385-1.351,1.339,1.339,0,0,0-1.081-.456,1.366,1.366,0,0,0-1.114.477A2.078,2.078,0,0,0,118.393,28.684Zm8.666-1.742h-1.944v4.476h-1.321V26.942h-.927V25.874h.927V25.1a1.918,1.918,0,0,1,.569-1.432,2,2,0,0,1,1.459-.558,3.246,3.246,0,0,1,.42.024,1.676,1.676,0,0,1,.324.073v1.127a1.378,1.378,0,0,0-.227-.092,1.171,1.171,0,0,0-.372-.054.79.79,0,0,0-.632.256,1.133,1.133,0,0,0-.221.757v.669h1.944V24.628l1.31-.4v1.645h1.322v1.068H128.37v2.594a1.094,1.094,0,0,0,.186.723.743.743,0,0,0,.585.21.873.873,0,0,0,.273-.054,1.276,1.276,0,0,0,.278-.129v1.078a1.515,1.515,0,0,1-.413.13,2.79,2.79,0,0,1-.569.059,1.618,1.618,0,0,1-1.237-.44,1.87,1.87,0,0,1-.412-1.324Z" transform="translate(-69.244 -21.107)" fill="#fff"></path><g id="Group_1469" data-name="Group 1469"><rect id="Rectangle_484" data-name="Rectangle 484" width="6.126" height="6.126" fill="#fff"></rect><rect id="Rectangle_485" data-name="Rectangle 485" width="6.126" height="6.126" transform="translate(6.763)" fill="#fff"></rect><rect id="Rectangle_486" data-name="Rectangle 486" width="6.126" height="6.126" transform="translate(0 6.763)" fill="#fff"></rect><rect id="Rectangle_487" data-name="Rectangle 487" width="6.126" height="6.126" transform="translate(6.763 6.763)" fill="#fff"></rect></g></g><g id="Group_1471" data-name="Group 1471" transform="translate(119.221 15.525)"><path id="Path_3170" data-name="Path 3170" d="M191.871,31.861h-1.314l-.65-1.838h-2.84l-.624,1.838h-1.309l2.7-7.22h1.349Zm-2.281-2.814-1-2.88a3.4,3.4,0,0,1-.1-.453h-.02a2.888,2.888,0,0,1-.1.453l-.992,2.88Z" transform="translate(-185.134 -24.228)" fill="#fff"></path><path id="Path_3171" data-name="Path 3171" d="M201.427,31.633h-1.168v-.876h-.02a2.016,2.016,0,0,1-3.26.3,2.874,2.874,0,0,1-.572-1.886,3.129,3.129,0,0,1,.632-2.049,2.067,2.067,0,0,1,1.684-.771,1.614,1.614,0,0,1,1.516.836h.02V24h1.168Zm-1.153-2.357V28.6a1.316,1.316,0,0,0-.357-.932,1.2,1.2,0,0,0-.911-.382,1.227,1.227,0,0,0-1.03.488,2.178,2.178,0,0,0-.375,1.355,1.952,1.952,0,0,0,.36,1.241,1.171,1.171,0,0,0,.969.456,1.212,1.212,0,0,0,.972-.441A1.656,1.656,0,0,0,200.274,29.276Z" transform="translate(-189.142 -24)" fill="#fff"></path><path id="Path_3172" data-name="Path 3172" d="M210.61,27.844,208.616,33h-1.264l-1.9-5.156h1.269l1.143,3.6a3.357,3.357,0,0,1,.161.7h.015a3.737,3.737,0,0,1,.141-.675l1.2-3.625Z" transform="translate(-192.358 -25.367)" fill="#fff"></path><path id="Path_3173" data-name="Path 3173" d="M218.737,30.672h-3.514a1.485,1.485,0,0,0,.441,1.1,1.638,1.638,0,0,0,1.156.387,2.545,2.545,0,0,0,1.515-.493v.942a3.457,3.457,0,0,1-1.863.443,2.306,2.306,0,0,1-1.785-.7,2.809,2.809,0,0,1-.647-1.976,2.746,2.746,0,0,1,.713-1.961,2.332,2.332,0,0,1,1.77-.758,2.033,2.033,0,0,1,1.636.68,2.826,2.826,0,0,1,.579,1.888Zm-1.128-.826a1.505,1.505,0,0,0-.3-.98,1,1,0,0,0-.806-.35,1.137,1.137,0,0,0-.853.367,1.68,1.68,0,0,0-.431.962Z" transform="translate(-195.411 -25.3)" fill="#fff"></path><path id="Path_3174" data-name="Path 3174" d="M226.046,28.906a.967.967,0,0,0-.609-.166,1.045,1.045,0,0,0-.866.469,2.1,2.1,0,0,0-.347,1.274V32.95h-1.168V27.794h1.168v1.062h.02a1.8,1.8,0,0,1,.527-.848,1.187,1.187,0,0,1,.793-.3.984.984,0,0,1,.483.1Z" transform="translate(-198.617 -25.317)" fill="#fff"></path><path id="Path_3175" data-name="Path 3175" d="M231.857,32.1a2.024,2.024,0,0,1-.9.171q-1.5,0-1.5-1.44V27.919H228.6V27h.861V25.809l1.168-.332V27h1.234v.916h-1.234V30.5a1.014,1.014,0,0,0,.166.654.69.69,0,0,0,.554.2.8.8,0,0,0,.514-.171Z" transform="translate(-200.586 -24.525)" fill="#fff"></path><path id="Path_3176" data-name="Path 3176" d="M235.751,25.431a.7.7,0,0,1-.491-.186.612.612,0,0,1-.2-.473.63.63,0,0,1,.2-.479.694.694,0,0,1,.491-.191.716.716,0,0,1,.5.191.626.626,0,0,1,.206.479.614.614,0,0,1-.206.465A.708.708,0,0,1,235.751,25.431Zm.579,6.238h-1.168V26.514h1.168Z" transform="translate(-202.883 -24.036)" fill="#fff"></path><path id="Path_3177" data-name="Path 3177" d="M238.9,32.772V31.689a2.329,2.329,0,0,0,1.446.5q1.057,0,1.057-.624a.5.5,0,0,0-.09-.3.884.884,0,0,0-.244-.219,1.963,1.963,0,0,0-.363-.171q-.209-.075-.465-.171a4.845,4.845,0,0,1-.572-.267,1.72,1.72,0,0,1-.423-.32,1.21,1.21,0,0,1-.255-.405,1.489,1.489,0,0,1-.086-.529,1.22,1.22,0,0,1,.177-.657,1.529,1.529,0,0,1,.473-.478,2.255,2.255,0,0,1,.675-.292,3.076,3.076,0,0,1,.78-.1,3.56,3.56,0,0,1,1.279.217v1.022a2.156,2.156,0,0,0-1.248-.373,1.621,1.621,0,0,0-.4.045,1.04,1.04,0,0,0-.3.126.633.633,0,0,0-.2.193.464.464,0,0,0-.07.249.534.534,0,0,0,.07.282.641.641,0,0,0,.21.2,1.751,1.751,0,0,0,.332.161q.193.073.446.159a6.559,6.559,0,0,1,.6.277,2.016,2.016,0,0,1,.451.32,1.268,1.268,0,0,1,.287.412,1.409,1.409,0,0,1,.1.557,1.272,1.272,0,0,1-.181.684,1.506,1.506,0,0,1-.483.483,2.242,2.242,0,0,1-.7.285,3.637,3.637,0,0,1-.833.093A3.51,3.51,0,0,1,238.9,32.772Z" transform="translate(-204.249 -25.3)" fill="#fff"></path><path id="Path_3178" data-name="Path 3178" d="M246.829,25.431a.7.7,0,0,1-.491-.186.612.612,0,0,1-.2-.473.63.63,0,0,1,.2-.479.694.694,0,0,1,.491-.191.715.715,0,0,1,.5.191.627.627,0,0,1,.207.479.615.615,0,0,1-.207.465A.707.707,0,0,1,246.829,25.431Zm.579,6.238H246.24V26.514h1.168Z" transform="translate(-206.822 -24.036)" fill="#fff"></path><path id="Path_3179" data-name="Path 3179" d="M255.07,32.933H253.9V30.028q0-1.444-1.022-1.445a1.116,1.116,0,0,0-.881.4,1.485,1.485,0,0,0-.347,1.009v2.941h-1.173V27.777h1.173v.856h.02a1.839,1.839,0,0,1,1.672-.977,1.556,1.556,0,0,1,1.284.547,2.455,2.455,0,0,1,.443,1.578Z" transform="translate(-208.366 -25.3)" fill="#fff"></path><path id="Path_3180" data-name="Path 3180" d="M264.323,32.52a2.517,2.517,0,0,1-2.855,2.84,4.249,4.249,0,0,1-1.757-.337V33.955a3.252,3.252,0,0,0,1.606.483,1.611,1.611,0,0,0,1.837-1.808v-.564h-.02a2.027,2.027,0,0,1-3.26.3,2.78,2.78,0,0,1-.576-1.845,3.255,3.255,0,0,1,.619-2.09,2.059,2.059,0,0,1,1.7-.775,1.641,1.641,0,0,1,1.516.836h.02v-.715h1.168Zm-1.158-1.948V29.9a1.314,1.314,0,0,0-.36-.929,1.179,1.179,0,0,0-.9-.385,1.235,1.235,0,0,0-1.04.49,2.221,2.221,0,0,0-.375,1.372,1.909,1.909,0,0,0,.36,1.216,1.155,1.155,0,0,0,.954.456,1.237,1.237,0,0,0,.982-.436A1.639,1.639,0,0,0,263.165,30.572Z" transform="translate(-211.502 -25.3)" fill="#fff"></path></g><rect id="Rectangle_488" data-name="Rectangle 488" width="0.967" height="12.889" transform="translate(108.823 12.947)" fill="#fff"></rect><g id="Group_1472" data-name="Group 1472" transform="translate(40.099 38.726)"><path id="Path_3181" data-name="Path 3181" d="M62.362,78.755V76.262a4.834,4.834,0,0,0,1.026.68,8.292,8.292,0,0,0,1.259.51,9.977,9.977,0,0,0,1.328.321,7.415,7.415,0,0,0,1.234.113,4.829,4.829,0,0,0,2.914-.724,2.715,2.715,0,0,0,.642-3.354,3.611,3.611,0,0,0-.887-.988,8.825,8.825,0,0,0-1.341-.856q-.773-.408-1.667-.862-.944-.479-1.763-.969a7.627,7.627,0,0,1-1.422-1.083,4.5,4.5,0,0,1-.95-1.34,4.567,4.567,0,0,1,.195-3.9,4.653,4.653,0,0,1,1.422-1.5,6.467,6.467,0,0,1,2.008-.881,9.2,9.2,0,0,1,2.3-.289,8.8,8.8,0,0,1,3.889.642v2.379a7.053,7.053,0,0,0-4.1-1.107,6.785,6.785,0,0,0-1.385.144,3.947,3.947,0,0,0-1.234.472,2.742,2.742,0,0,0-.881.843,2.243,2.243,0,0,0-.34,1.259,2.6,2.6,0,0,0,.258,1.2,2.933,2.933,0,0,0,.762.919,7.594,7.594,0,0,0,1.227.806q.724.391,1.668.856.97.479,1.838,1.007a8.385,8.385,0,0,1,1.523,1.171,5.2,5.2,0,0,1,1.038,1.422,3.99,3.99,0,0,1,.384,1.787,4.534,4.534,0,0,1-.523,2.259,4.284,4.284,0,0,1-1.409,1.5,6.158,6.158,0,0,1-2.046.837,11.24,11.24,0,0,1-2.442.258,10.068,10.068,0,0,1-1.058-.069q-.629-.07-1.284-.2a10.388,10.388,0,0,1-1.24-.327A3.835,3.835,0,0,1,62.362,78.755Z" transform="translate(-62.362 -60.403)" fill="#fff"></path><path id="Path_3182" data-name="Path 3182" d="M94.164,76.4h-9.1a4.822,4.822,0,0,0,1.158,3.323A3.993,3.993,0,0,0,89.268,80.9a6.331,6.331,0,0,0,4-1.435V81.4a7.482,7.482,0,0,1-4.494,1.234,5.447,5.447,0,0,1-4.292-1.756,7.185,7.185,0,0,1-1.561-4.94,7.05,7.05,0,0,1,1.705-4.9,5.471,5.471,0,0,1,4.236-1.894,4.846,4.846,0,0,1,3.914,1.636,6.823,6.823,0,0,1,1.384,4.543Zm-2.114-1.75a4.2,4.2,0,0,0-.862-2.781,2.939,2.939,0,0,0-2.36-.994,3.337,3.337,0,0,0-2.48,1.045,4.744,4.744,0,0,0-1.259,2.731Z" transform="translate(-69.673 -63.25)" fill="#fff"></path><path id="Path_3183" data-name="Path 3183" d="M107.073,79.082h-2.064V60h2.064Z" transform="translate(-77.524 -60)" fill="#fff"></path><path id="Path_3184" data-name="Path 3184" d="M124.37,76.4h-9.1a4.822,4.822,0,0,0,1.158,3.323,3.993,3.993,0,0,0,3.046,1.171,6.331,6.331,0,0,0,4-1.435V81.4a7.482,7.482,0,0,1-4.494,1.234,5.446,5.446,0,0,1-4.292-1.756,7.188,7.188,0,0,1-1.561-4.94,7.05,7.05,0,0,1,1.705-4.9,5.471,5.471,0,0,1,4.236-1.894,4.846,4.846,0,0,1,3.914,1.636,6.82,6.82,0,0,1,1.384,4.543Zm-2.115-1.75a4.2,4.2,0,0,0-.862-2.781,2.939,2.939,0,0,0-2.36-.994,3.336,3.336,0,0,0-2.48,1.045,4.744,4.744,0,0,0-1.259,2.731Z" transform="translate(-80.412 -63.25)" fill="#fff"></path><path id="Path_3185" data-name="Path 3185" d="M143.515,81.74a6.7,6.7,0,0,1-3.525.894,5.835,5.835,0,0,1-4.449-1.794,6.5,6.5,0,0,1-1.693-4.651,7.146,7.146,0,0,1,1.825-5.116,6.385,6.385,0,0,1,4.871-1.932,6.791,6.791,0,0,1,3,.629v2.114a5.253,5.253,0,0,0-3.072-1.007,4.149,4.149,0,0,0-3.241,1.416,5.373,5.373,0,0,0-1.265,3.72,5.116,5.116,0,0,0,1.19,3.575,4.1,4.1,0,0,0,3.191,1.309,5.169,5.169,0,0,0,3.172-1.121Z" transform="translate(-87.778 -63.25)" fill="#fff"></path><path id="Path_3186" data-name="Path 3186" d="M158.616,80.269a3.977,3.977,0,0,1-1.926.4q-3.386,0-3.386-3.776V69.268h-2.215V67.5H153.3V64.359l2.065-.668V67.5h3.247v1.763h-3.247V76.53a3.008,3.008,0,0,0,.44,1.85,1.757,1.757,0,0,0,1.46.554,2.17,2.17,0,0,0,1.347-.428Z" transform="translate(-93.907 -61.312)" fill="#fff"></path><path id="Path_3187" data-name="Path 3187" d="M180.147,72.829v6.822h-2.115V61.6h4.96a6.545,6.545,0,0,1,4.487,1.409,5.033,5.033,0,0,1,1.592,3.978,5.47,5.47,0,0,1-1.768,4.2,6.753,6.753,0,0,1-4.777,1.636Zm0-9.314v7.4h2.215a4.955,4.955,0,0,0,3.342-1,3.543,3.543,0,0,0,1.152-2.826q0-3.574-4.23-3.575Z" transform="translate(-103.487 -60.57)" fill="#fff"></path><path id="Path_3188" data-name="Path 3188" d="M207.137,82.332h-2.064V80.318h-.05a4.322,4.322,0,0,1-3.965,2.316,4.235,4.235,0,0,1-3.014-1.02,3.533,3.533,0,0,1-1.089-2.706q0-3.612,4.255-4.2l3.864-.541q0-3.286-2.656-3.285a6.346,6.346,0,0,0-4.2,1.586V70.349a7.988,7.988,0,0,1,4.38-1.208q4.543,0,4.544,4.808Zm-2.064-6.52-3.109.428a5.047,5.047,0,0,0-2.165.711,2.051,2.051,0,0,0-.73,1.806,1.968,1.968,0,0,0,.673,1.542,2.6,2.6,0,0,0,1.794.6,3.314,3.314,0,0,0,2.536-1.076,3.846,3.846,0,0,0,1-2.725Z" transform="translate(-110.214 -63.25)" fill="#fff"></path><path id="Path_3189" data-name="Path 3189" d="M225.312,71.574a2.525,2.525,0,0,0-1.561-.416,2.635,2.635,0,0,0-2.209,1.246,5.759,5.759,0,0,0-.887,3.4v6.57H218.59V69.484h2.064V72.14h.05a4.5,4.5,0,0,1,1.347-2.121,3.072,3.072,0,0,1,2.027-.761,3.391,3.391,0,0,1,1.234.176Z" transform="translate(-117.906 -63.292)" fill="#fff"></path><path id="Path_3190" data-name="Path 3190" d="M237.421,80.269a3.977,3.977,0,0,1-1.926.4q-3.386,0-3.386-3.776V69.268h-2.215V67.5h2.215V64.359l2.064-.668V67.5h3.247v1.763h-3.247V76.53a3.007,3.007,0,0,0,.441,1.85,1.756,1.756,0,0,0,1.46.554,2.169,2.169,0,0,0,1.347-.428Z" transform="translate(-121.925 -61.312)" fill="#fff"></path><path id="Path_3191" data-name="Path 3191" d="M256.349,82.332h-2.064V74.981q0-4.1-3-4.1a3.248,3.248,0,0,0-2.561,1.165,4.316,4.316,0,0,0-1.013,2.939v7.351H245.65V69.443h2.065v2.14h.05a4.652,4.652,0,0,1,4.229-2.442,3.945,3.945,0,0,1,3.235,1.366,6.083,6.083,0,0,1,1.12,3.946Z" transform="translate(-127.527 -63.25)" fill="#fff"></path><path id="Path_3192" data-name="Path 3192" d="M277.96,76.4h-9.1a4.82,4.82,0,0,0,1.158,3.323,3.992,3.992,0,0,0,3.046,1.171,6.329,6.329,0,0,0,4-1.435V81.4a7.479,7.479,0,0,1-4.493,1.234,5.447,5.447,0,0,1-4.292-1.756,7.185,7.185,0,0,1-1.561-4.94,7.049,7.049,0,0,1,1.705-4.9,5.471,5.471,0,0,1,4.236-1.894,4.846,4.846,0,0,1,3.914,1.636,6.823,6.823,0,0,1,1.384,4.543Zm-2.114-1.75a4.2,4.2,0,0,0-.862-2.781,2.939,2.939,0,0,0-2.36-.994,3.337,3.337,0,0,0-2.48,1.045,4.744,4.744,0,0,0-1.259,2.731Z" transform="translate(-135.018 -63.25)" fill="#fff"></path><path id="Path_3193" data-name="Path 3193" d="M295.527,71.574a2.521,2.521,0,0,0-1.56-.416,2.634,2.634,0,0,0-2.209,1.246,5.759,5.759,0,0,0-.887,3.4v6.57h-2.064V69.484h2.064V72.14h.05a4.5,4.5,0,0,1,1.347-2.121,3.072,3.072,0,0,1,2.026-.761,3.387,3.387,0,0,1,1.233.176Z" transform="translate(-142.87 -63.292)" fill="#fff"></path></g></g></svg> 